<svg width="64" height="64" viewBox="0 0 64 64" fill="none" xmlns="http://www.w3.org/2000/svg">
<g opacity="0.3" filter="url(#filter0_f_102_63)">
<path d="M46.4983 4.49965H17.5021C10.3213 4.49965 4.50004 10.3209 4.50004 17.5017V46.4979C4.50004 53.6788 10.3213 59.5 17.5021 59.5H46.4983C53.6792 59.5 59.5004 53.6788 59.5004 46.4979V17.5017C59.5004 10.3209 53.6792 4.49965 46.4983 4.49965Z" fill="black"/>
</g>
<path d="M17.5033 4.49961C10.3002 4.49961 4.5015 10.2983 4.5015 17.5014V46.4974C4.5015 53.7006 10.3002 59.4993 17.5033 59.4993H46.4993C53.7025 59.4993 59.5011 53.7006 59.5011 46.4974V17.5014C59.5011 10.2983 53.7025 4.49961 46.4993 4.49961H17.5033Z" fill="#161929"/>
<path d="M18.3386 10.4997C13.9966 10.4997 10.5009 13.9958 10.5009 18.3375V45.6617C10.5009 50.0038 13.9969 53.4995 18.3386 53.4995H45.6629C50.0049 53.4995 53.5006 50.0035 53.5006 45.6617V18.3375C53.5006 13.9955 50.0046 10.4997 45.6629 10.4997H18.3386Z" fill="#FAFAFA"/>
<path opacity="0.6" d="M16.1162 15.9786C16.1351 16.1322 16.1536 16.2855 16.1747 16.4384H47.8327C47.8523 16.2732 47.8693 16.1417 47.887 15.9786H16.1162Z" fill="#323549"/>
<path d="M6.62187 13.568C5.44328 13.568 4.49493 14.5164 4.49493 15.6949V22.6033C4.49493 22.689 4.51043 22.7703 4.52026 22.8533C4.49947 24.8963 4.5006 27.2252 4.5006 30.281V31.1286L4.49865 46.4976C4.49865 46.6354 4.51415 46.7692 4.51831 46.9058C4.52586 47.0993 4.53002 47.2936 4.54778 47.484C5.02549 53.8927 10.1012 58.9694 16.5087 59.4509C16.8307 59.4816 17.1567 59.4993 17.4892 59.4998C17.4937 59.4998 17.4983 59.4998 17.5028 59.4998H46.4988C46.8365 59.4998 47.168 59.482 47.4948 59.4509C53.8861 58.9689 58.9512 53.9142 59.4478 47.5271C59.4807 47.1886 59.5006 46.846 59.5006 46.4978V30.8355C59.5006 30.8287 59.5025 30.8226 59.5025 30.8158V23.9075C59.5025 22.7289 58.5541 21.7805 57.3756 21.7805H34.6723C33.646 21.7805 32.8426 21.7112 32.1762 21.5344C31.5098 21.3576 30.9816 21.0723 30.5102 20.6438C30.0388 20.2153 29.6233 19.643 29.1821 18.888C28.7408 18.1329 28.2736 17.1967 27.6977 16.0403C27.4199 15.3569 27.032 14.86 26.6078 14.5012C26.1837 14.1424 25.724 13.9211 25.2973 13.7844C24.4439 13.511 23.729 13.5794 23.729 13.5794H14.0785C14.0389 13.5772 14.0015 13.5676 13.9613 13.5676H10.5023L6.62187 13.568Z" fill="#323549"/>
<path d="M31.9996 29.7629C31.6541 29.7629 31.3065 29.7907 30.9699 29.8257C30.3138 29.8851 29.6653 30.0105 29.0343 30.2002C27.4863 30.6838 26.0787 31.5354 24.9319 32.6822C23.7851 33.829 22.9335 35.2366 22.4499 36.7846C22.2602 37.4156 22.1347 38.064 22.0754 38.7202C22.0367 39.0621 22.0157 39.4058 22.0124 39.7498C22.0124 40.0954 22.0408 40.443 22.0754 40.7796C22.1347 41.4357 22.2602 42.0842 22.4499 42.7151C22.9335 44.2631 23.7851 45.6708 24.9319 46.8175C26.0787 47.9643 27.4863 48.816 29.0343 49.2995C29.6652 49.4895 30.3137 49.6154 30.9699 49.6751C31.3065 49.7091 31.654 49.737 31.9996 49.737C32.3452 49.737 32.6927 49.709 33.0293 49.6742C33.6854 49.6151 34.3339 49.49 34.9649 49.3007C35.5919 49.0993 36.1979 48.8378 36.7745 48.5197C39.0631 47.2821 40.7772 45.199 41.5508 42.7149C41.7401 42.084 41.8653 41.4355 41.9243 40.7794C41.9595 40.4428 41.9873 40.0953 41.9873 39.7497C41.9873 39.4052 41.9589 39.0556 41.9243 38.72C41.8653 38.0639 41.7401 37.4154 41.5508 36.7844C41.1628 35.5421 40.5373 34.3868 39.7091 33.3828C39.5053 33.1362 39.2797 32.9224 39.053 32.6957C38.1511 31.7939 37.0965 31.0468 35.9012 30.5424C35.5949 30.4133 35.2826 30.299 34.9654 30.1999C34.3344 30.0102 33.686 29.8847 33.0298 29.8254C32.6879 29.7872 32.3437 29.7666 31.9996 29.7629ZM31.9996 30.7615C33.5107 30.7615 34.9319 31.1321 36.1821 31.7912C36.215 31.8098 36.2422 31.8361 36.2749 31.854C36.2999 31.8871 36.2938 31.9231 36.3378 31.9469C36.37 31.9654 36.4008 31.9936 36.4306 32.0097C36.4835 32.0413 36.5354 32.0837 36.5244 32.1344C36.5115 32.2093 36.3885 32.2044 36.3375 32.2595C36.3436 32.3641 36.3016 32.3443 36.2746 32.4151C36.2905 32.4609 36.3306 32.4551 36.3375 32.5092C36.3281 32.5671 36.2526 32.5739 36.2746 32.6339C36.3724 32.7098 36.4633 32.6463 36.5562 32.6339C36.7587 32.6092 36.9297 32.637 37.0556 32.5402C37.0427 32.4622 37.1153 32.4405 37.1483 32.3845C37.2154 32.4312 37.2713 32.4925 37.3362 32.5402C37.2981 32.5556 37.2144 32.581 37.1795 32.603C37.1295 32.637 37.1135 32.69 37.0556 32.7277C37.0137 32.7556 36.9118 32.8524 36.8677 32.8524C36.8149 32.8524 36.718 32.8085 36.6799 32.8202C36.6262 32.8357 36.6478 32.9239 36.5871 32.945C36.4673 32.9889 36.2546 32.8283 36.2126 33.0078C36.2626 33.1115 36.4334 33.0768 36.5243 33.1325C36.5813 33.1684 36.6662 33.3525 36.6813 33.4132C36.6995 33.5062 36.6995 33.6018 36.6813 33.6948C36.6243 33.8397 36.4737 33.8227 36.3058 33.8196C36.2608 33.8196 36.2227 33.8227 36.1818 33.8196C35.9002 33.801 35.6225 33.7116 35.4947 33.9124C35.5041 34.0672 35.5294 34.152 35.4947 34.2869C35.4697 34.3847 35.3648 34.4519 35.3698 34.5367C35.3718 34.5806 35.4528 34.6645 35.4635 34.7245C35.4696 34.7567 35.4476 34.8205 35.4635 34.8493C35.5104 34.9384 35.6293 34.8338 35.7133 34.8493C35.7932 34.8617 35.869 34.9792 35.869 35.0668C35.8673 35.1538 35.8458 35.2392 35.8061 35.3166C35.7262 35.4364 35.5774 35.4076 35.4634 35.4732C35.3685 35.527 35.3326 35.6592 35.2756 35.7539C35.2156 35.8557 35.1589 35.8898 35.1828 36.0346C35.115 36.1878 34.9925 36.3103 34.8393 36.3781C34.7843 36.4046 34.7318 36.4361 34.6826 36.4722C34.6368 36.5091 34.5952 36.5509 34.5587 36.597C34.4948 36.6669 34.4058 36.6978 34.3709 36.7526C34.3459 36.7944 34.3678 36.8835 34.3395 36.9405C34.2995 37.0163 34.2335 37.0822 34.1828 37.1581C34.1609 37.1949 34.1149 37.236 34.09 37.2831C34.0322 37.3889 33.9542 37.4719 33.9652 37.5647C33.9746 37.6538 34.085 37.6737 34.09 37.7516C34.0961 37.7956 34.0572 37.8296 34.0579 37.8764C34.0609 37.9463 34.0829 37.9782 34.09 38.032C34.1029 38.167 34.0211 38.2208 33.996 38.3137C33.9832 38.3567 34.0055 38.4037 33.996 38.4374C33.9741 38.5055 33.873 38.5455 33.8711 38.6253C33.8691 38.6813 33.9589 38.7333 33.9649 38.8131C33.968 38.8673 33.923 38.9178 33.9327 38.9688C33.9516 39.0666 34.1375 39.2043 34.2143 39.2805C34.3172 39.3842 34.4181 39.4523 34.464 39.5621C34.5021 39.6541 34.5178 39.8051 34.5889 39.8739C34.6408 39.924 34.7396 39.946 34.8066 39.9989C34.8704 40.049 34.9585 40.071 35.0265 40.1239C35.1362 40.2106 35.286 40.3867 35.4629 40.3737C35.5548 40.3676 35.6397 40.3297 35.7435 40.3108C35.8504 40.2923 35.9781 40.2378 36.087 40.2489C36.1701 40.2584 36.2487 40.317 36.3368 40.3118C36.4267 40.3057 36.5456 40.2625 36.6485 40.218C36.8284 40.14 37.1049 39.992 37.3666 40.0301C37.5663 40.0619 37.5704 40.2848 37.7101 40.3737C37.8699 40.3862 37.9889 40.342 38.1156 40.3737C38.2115 40.3986 38.3254 40.5786 38.3342 40.6544C38.3436 40.7324 38.2823 40.793 38.2713 40.8423C38.2463 40.9469 38.2272 41.0871 38.2093 41.154C38.1934 41.2069 38.1764 41.2576 38.1772 41.3106C38.1772 41.3573 38.253 41.4662 38.303 41.5281C38.3631 41.6049 38.449 41.663 38.5207 41.7466C38.6534 41.8995 38.7094 42.1062 38.8022 42.3089C38.8241 42.359 38.7803 42.3686 38.8022 42.433C38.7623 42.7385 38.6584 42.9384 38.4587 43.2759C38.3637 43.3858 38.269 43.5146 38.2709 43.6505C38.2648 43.977 38.4417 44.1459 38.4279 44.4624C38.395 44.8869 38.4288 44.9528 38.3957 45.1795C38.5395 45.2525 38.4687 45.4661 38.4279 45.617C38.3659 45.7964 38.3058 45.8407 38.2709 45.9605C38.3393 45.9914 38.4151 46.0024 38.4895 45.9923C37.6486 46.8642 36.6399 47.557 35.5243 48.029C34.4086 48.501 33.209 48.7424 31.9977 48.7388C30.8424 48.7395 29.6979 48.517 28.627 48.0836C28.6241 48.0816 28.6301 48.0519 28.627 48.0515C28.722 48.0116 28.9017 48.1214 28.9706 47.9896C29.0047 47.9258 28.9247 47.8036 28.9706 47.7398C29.0028 47.6958 29.2153 47.6568 29.2823 47.646C29.3792 47.6305 29.478 47.6491 29.5321 47.6143C29.5726 47.5869 29.6054 47.5495 29.6273 47.5058C29.6491 47.462 29.6594 47.4134 29.657 47.3645C29.6509 47.3116 29.6051 47.2865 29.5642 47.2395C29.5294 47.1996 29.5547 47.1504 29.5321 47.1148C29.4893 47.051 29.4251 47.0198 29.4072 46.9269C29.538 46.902 29.718 47.0739 29.9066 47.0207C29.9965 46.9958 30.1463 46.8242 30.1881 46.74C30.201 46.715 30.1723 46.615 30.1881 46.5843C30.204 46.5492 30.2441 46.5394 30.2501 46.5215C30.2629 46.4726 30.2406 46.4587 30.2501 46.4287C30.283 46.3358 30.3828 46.2767 30.4379 46.2089C30.4788 46.1588 30.5238 46.1062 30.5628 46.0532C30.6055 45.9972 30.6266 45.9783 30.6556 45.9291C30.6839 45.7633 30.5537 45.6367 30.5936 45.4917C30.6364 45.3277 30.8733 45.2222 31.03 45.1481C31.0851 45.1232 31.1407 45.0714 31.187 45.0553C31.2958 45.0163 31.4276 45.0304 31.5295 44.9925C31.7003 44.9306 31.7592 44.7427 31.8422 44.587C31.8822 44.514 31.9281 44.4521 31.935 44.3992C31.9444 44.3524 31.9255 44.2983 31.935 44.2435C31.9444 44.1896 31.9509 44.1476 31.9671 44.0878C31.9879 43.9849 31.9984 43.8802 31.9985 43.7752C31.9985 43.703 31.9671 43.6851 31.9671 43.6195C31.9543 43.384 32.036 43.3738 32.1228 43.245C32.1669 43.1812 32.1858 43.0723 32.2169 43.0265C32.3638 42.8089 32.6094 42.7019 32.5914 42.3713C32.5853 42.2614 32.5464 42.0317 32.4665 41.9967C32.4206 41.9782 32.3146 41.9907 32.2479 41.965C32.0331 41.8851 31.8784 41.6394 31.6547 41.6215C31.6078 41.6195 31.5827 41.6235 31.5298 41.6215C31.443 41.6195 31.3471 41.5385 31.2493 41.5277C31.1873 41.5216 31.0674 41.5462 31.0306 41.5277C30.9747 41.5027 30.9828 41.403 30.9379 41.372C30.9008 41.3471 30.8381 41.3302 30.7812 41.3092C30.7022 41.2742 30.6176 41.2533 30.5314 41.2473C30.4993 41.2452 30.4116 41.2533 30.3758 41.2473C30.3198 41.2378 30.272 41.1863 30.22 41.1535C30.154 41.1136 30.1222 41.0854 30.0952 41.0288C30.1549 40.8332 29.9473 40.8001 29.9073 40.6862C29.8884 40.6333 29.9262 40.5463 29.9073 40.4984C29.8854 40.4312 29.8265 40.3987 29.7516 40.3427C29.6217 40.2408 29.5019 40.148 29.3142 40.1242C29.2311 40.1147 29.1342 40.1302 29.0345 40.1242C28.9146 40.1127 28.8031 40.0571 28.7218 39.9682C28.6451 39.8781 28.6319 39.7915 28.5652 39.7497C28.5022 39.7098 28.3903 39.6977 28.3475 39.6556C28.3286 39.6371 28.3347 39.6036 28.3154 39.5628C28.2832 39.4969 28.2135 39.4857 28.2534 39.4062C28.1804 39.3703 28.2066 39.452 28.1286 39.4383C28.0587 39.3387 28.0078 39.2826 27.848 39.3127C27.775 39.3282 27.714 39.4365 27.6293 39.4383C27.5595 39.4404 27.5035 39.3254 27.4107 39.3127C27.3409 39.3032 27.2409 39.3867 27.1931 39.3755C27.1141 39.363 27.1072 39.2666 27.0364 39.2198C26.9845 39.1847 26.8785 39.0929 26.8496 39.0951C26.7587 39.0971 26.6939 39.287 26.568 39.2198C26.507 39.1418 26.6728 39.136 26.6002 39.0632C26.5451 39.0094 26.5184 39.0662 26.4753 39.0954C26.4243 39.1294 26.3753 39.1693 26.3183 39.1882C26.1934 39.2359 26.1047 39.2312 26.0066 39.2823C25.9167 39.33 25.9028 39.408 25.8509 39.5008C25.809 39.5766 25.727 39.6846 25.6631 39.6886C25.5873 39.6947 25.5133 39.5927 25.4454 39.5627C25.2356 39.4726 25.1178 39.6236 24.9461 39.6255C24.7862 39.6275 24.5635 39.3708 24.5715 39.22C24.5775 39.1272 24.6225 38.9904 24.6334 38.8764C24.6429 38.7863 24.7253 38.7105 24.7272 38.6267C24.7292 38.5168 24.5494 38.4209 24.4774 38.4082C24.3066 38.3764 24.0779 38.4852 23.8842 38.4082C23.8483 38.3462 23.9562 38.3122 23.9779 38.2525C23.9908 38.2173 23.9651 38.1965 23.9779 38.1587C23.9998 38.1008 24.0748 38.0646 24.1028 38.003C24.1217 37.9563 24.1122 37.873 24.1342 37.8152C24.1591 37.7505 24.2219 37.7072 24.2282 37.6595C24.2342 37.5976 24.1832 37.5125 24.1342 37.4726C24.0168 37.4723 23.9004 37.4933 23.7906 37.5345C23.5949 37.6245 23.6459 37.879 23.448 37.941C23.3801 37.9625 23.2741 37.9911 23.1983 38.0029C23.3261 37.3588 23.5248 36.7308 23.7908 36.1304C23.8606 36.1428 23.9185 36.1874 23.9786 36.1932C24.1453 36.2056 24.1522 36.0784 24.2903 36.0054C24.4321 36.024 24.5051 35.993 24.6339 36.0054C24.7207 36.0147 24.8456 36.1252 24.9144 36.1301C24.9723 36.1321 24.9842 36.058 25.0393 36.0673C25.0944 36.0766 25.1862 36.1902 25.196 36.2551C25.2054 36.3369 25.1409 36.4148 25.1638 36.5049C25.2497 36.5919 25.4164 36.6417 25.5384 36.6928C25.6183 36.6271 25.5512 36.4752 25.5384 36.3801C25.5364 36.3383 25.5444 36.2931 25.5384 36.2554C25.5289 36.1907 25.507 36.1245 25.507 36.0675C25.507 35.8079 25.7067 35.7019 25.8815 35.6C25.9564 35.5561 26.0344 35.4763 26.1002 35.4434C26.192 35.3986 26.242 35.3933 26.3178 35.3506C26.4565 35.2726 26.5855 35.19 26.6923 35.1008C26.7423 34.9829 26.6863 34.8421 26.6923 34.7263C26.7423 34.6948 26.7653 34.7325 26.8172 34.7263C26.9012 34.7078 26.927 34.5865 26.9739 34.5385C27.0022 34.5106 27.0969 34.5035 27.1296 34.4766C27.2136 34.411 27.2136 34.3178 27.2853 34.2887C27.3102 34.2794 27.3702 34.2702 27.4102 34.2572C27.4652 34.2417 27.542 34.1943 27.6288 34.1631C27.6847 34.1445 27.8257 34.1538 27.8474 34.1315C27.8754 34.1037 27.8413 33.9858 27.8474 33.9437C27.8902 33.7388 28.194 33.732 28.3777 33.6639C28.5045 33.6138 28.6413 33.511 28.7832 33.5379C28.7548 33.6357 28.6353 33.6079 28.6583 33.7258C28.6897 33.8907 28.881 33.6859 28.9398 33.663C29.0496 33.6162 29.2624 33.5909 29.4073 33.5382C29.535 33.4934 29.7458 33.4042 29.6259 33.2575C29.5258 33.2513 29.495 33.3467 29.4073 33.3823C29.3475 33.3916 29.3334 33.3544 29.2824 33.3507C29.2333 33.3487 29.2066 33.3906 29.1575 33.3823C29.1084 33.373 29.0405 33.2845 29.0326 33.2266C29.0137 33.0737 29.1893 33.027 29.2512 32.9139C29.2094 32.7762 29.0245 32.9046 28.9076 32.852C28.9205 32.7703 28.9674 32.6812 29.0643 32.6642C29.1719 32.6575 29.2794 32.6792 29.376 32.727C29.404 32.7486 29.3666 32.813 29.4074 32.852C29.4552 32.8938 29.5332 32.8613 29.5952 32.852C29.6171 32.7483 29.4524 32.7941 29.4703 32.727C29.5933 32.6471 29.8189 32.684 29.9697 32.6642C30.0565 32.6518 30.1414 32.5812 30.2194 32.5394C30.2915 32.4977 30.3613 32.4395 30.4371 32.5079C30.459 32.5828 30.3852 32.6258 30.3443 32.6636C30.2043 32.7877 30.0785 32.9263 29.9698 33.07C30.0368 33.1347 30.1374 33.0886 30.2503 33.1016C30.2944 33.1078 30.3601 33.1264 30.4061 33.1338C30.4611 33.1431 30.519 33.1245 30.5627 33.1338C30.6385 33.1524 30.6426 33.2585 30.7184 33.2585C30.8414 33.2585 30.8512 33.1549 30.7804 33.0707C30.8023 32.9859 30.8433 32.9128 30.8125 32.8531C30.7555 32.7401 30.5429 32.8717 30.5309 32.7284C30.5249 32.6374 30.6237 32.6095 30.6558 32.5405C30.643 32.3666 30.7986 32.3558 30.7807 32.198C30.7712 32.1323 30.7008 32.1342 30.6558 32.0732C30.6339 32.0401 30.621 31.9714 30.5939 31.9485C30.4989 31.8687 30.3243 31.8814 30.3123 31.7285C30.3063 31.6384 30.3252 31.5777 30.3123 31.4787C30.2995 31.3868 30.2054 31.1232 30.1255 31.1052C30.0236 31.0835 29.9657 31.2667 29.8449 31.3228C29.7659 31.355 29.6798 31.3661 29.5952 31.355C29.5511 31.3457 29.4753 31.3132 29.4703 31.2299C29.4642 31.1823 29.4797 31.1652 29.5016 31.1362C29.5077 31.13 29.4956 31.1114 29.5016 31.1046C30.3138 30.8743 31.1554 30.7592 31.9996 30.7615ZM28.2852 31.5735C28.1974 31.8573 27.9406 32.0189 27.5991 32.0099C27.5151 32.0898 27.55 32.2427 27.505 32.3535C27.4824 32.4004 27.4469 32.4399 27.4027 32.4675C27.3585 32.495 27.3074 32.5095 27.2553 32.5092C27.1883 32.503 27.0675 32.4163 27.0675 32.3535C27.0675 32.3015 27.1175 32.2427 27.1304 32.1969C27.4994 31.9608 27.8855 31.7529 28.2852 31.5735ZM35.9321 31.8852C35.8992 31.89 35.8674 31.9007 35.8383 31.9168C35.7685 31.9586 35.7654 32.0214 35.7135 32.0415C35.6386 32.0694 35.5367 32.0694 35.5256 32.1356C35.5162 32.1916 35.5905 32.2096 35.5886 32.2603C35.5602 32.3275 35.5087 32.3343 35.4948 32.416C35.5876 32.5667 35.8174 32.418 35.9323 32.3844C35.9823 32.369 36.0292 32.3937 36.0562 32.3529C36.0876 32.3027 36.0623 32.2031 36.0884 32.1344C36.1133 32.0585 36.1912 32.0765 36.1811 32.0096C36.1751 31.9425 36.045 31.8741 35.9321 31.8852ZM26.0374 33.0397C26.1045 33.1196 26.1604 33.2375 26.0374 33.2895C26.0185 33.2988 25.8009 33.3294 25.7569 33.3217C25.744 33.3197 25.738 33.3 25.7255 33.2895C25.8205 33.1967 25.9384 33.1289 26.0374 33.0397ZM26.2872 33.3524C26.3312 33.3544 26.3611 33.4425 26.4121 33.4453C26.4621 33.4515 26.5389 33.4053 26.569 33.4137C26.6449 33.4323 26.6728 33.5753 26.6004 33.6313C26.5407 33.6375 26.5205 33.5592 26.4765 33.5684C26.3526 33.5901 26.3186 33.8259 26.2267 33.8182C26.139 33.8089 26.0748 33.6322 26.1638 33.5684C26.1658 33.5146 26.129 33.4985 26.1324 33.4434C26.1604 33.4094 26.2143 33.3465 26.2872 33.3524ZM25.8818 33.4143C25.9067 33.4143 25.9037 33.405 25.9131 33.4143C25.9003 33.5112 25.8631 33.5251 25.7883 33.5709C25.7246 33.6068 25.6693 33.656 25.6262 33.7151C25.5831 33.7742 25.5532 33.8418 25.5385 33.9135C25.5257 33.9636 25.3818 34.1131 25.3208 34.1013C25.1771 34.0697 25.3806 33.7996 25.4136 33.7578C25.4507 33.7119 25.4967 33.6838 25.5385 33.633C25.5803 33.5829 25.5926 33.4752 25.6325 33.4452C25.6766 33.4136 25.8056 33.4118 25.8818 33.4143ZM38.1791 33.6641C38.3219 33.6548 38.3939 33.8272 38.4587 33.9138C38.5138 33.9847 38.6824 34.0837 38.7714 34.1323C38.8224 34.1602 38.8714 34.2004 38.9284 34.2264C38.9872 34.2512 39.0762 34.2861 39.1461 34.3511C39.2159 34.4149 39.269 34.5108 39.2709 34.5687C39.273 34.6275 39.231 34.6705 39.2396 34.7253C39.3025 34.7346 39.3355 34.6714 39.3644 34.6003C39.6001 34.9359 39.7999 35.2944 39.9886 35.6609C39.9711 35.6701 39.9561 35.6835 39.9451 35.6999C39.9341 35.7164 39.9275 35.7353 39.9257 35.755C39.9068 35.8568 39.9855 35.9868 39.8329 36.0048C39.736 36.0172 39.6222 35.9088 39.4893 35.88C39.4355 35.8676 39.3456 35.8924 39.3015 35.88C39.2018 35.8451 39.2317 35.7213 39.1458 35.6615C39.0693 35.6149 38.9845 35.5834 38.896 35.5687C38.8469 35.5625 38.8221 35.5749 38.7712 35.5687C38.7092 35.5594 38.6035 35.5687 38.5535 35.5365C38.5035 35.5049 38.3786 35.4536 38.3657 35.4118C38.3468 35.3446 38.5186 35.2502 38.5214 35.1942C38.5245 35.1503 38.4686 35.1345 38.4595 35.0683C38.4534 35.0283 38.4689 34.9695 38.4595 34.9445C38.4466 34.8968 38.3777 34.8525 38.3028 34.8507C38.238 34.8507 38.1728 34.8822 38.116 34.8822C38.0361 34.8842 37.8722 34.8423 37.7724 34.8507C37.7126 34.8569 37.6727 34.8785 37.6167 34.8822C37.4588 34.8946 37.366 34.8729 37.2421 34.8822C37.1522 34.8884 36.9826 34.9383 36.8986 34.976C36.8567 34.9946 36.8287 35.0419 36.7737 35.0689C36.7487 35.0813 36.7139 35.0843 36.6809 35.1011C36.6299 35.1227 36.5422 35.1809 36.4931 35.1939C36.4233 35.2125 36.3411 35.1877 36.2125 35.1939C36.1197 35.2001 35.965 35.1815 35.9628 35.0701C35.9608 34.9002 36.2714 34.9742 36.4302 34.9442C36.49 34.9318 36.5142 34.8612 36.5869 34.8204C36.6209 34.8018 36.6466 34.7795 36.6797 34.7575C36.7347 34.7195 36.8275 34.6446 36.8363 34.6019C36.8424 34.5619 36.7997 34.5059 36.8042 34.4771C36.8103 34.4391 36.88 34.4013 36.93 34.3524C37.0058 34.2754 37.054 34.1825 37.1477 34.1339C37.2115 34.099 37.3374 34.0912 37.3663 34.0402C37.3724 33.9823 37.3643 33.968 37.3663 33.9154C37.4063 33.8795 37.3947 33.8603 37.4292 33.8535C37.5271 33.8319 37.6262 33.8903 37.7409 33.8851C37.791 33.8831 37.8447 33.8882 37.8967 33.8535C37.9407 33.822 37.9785 33.7814 38.0215 33.7598C38.0694 33.735 38.1202 33.6681 38.1791 33.6641ZM26.7235 33.7582C26.7484 33.7551 26.7883 33.7612 26.8185 33.7582C26.8594 33.7561 26.8984 33.7582 26.9434 33.7582C26.9884 33.7582 27.0494 33.7396 27.0683 33.7582C27.0369 33.8779 26.7566 33.833 26.6618 33.7897C26.6648 33.7681 26.6996 33.7619 26.7235 33.7582ZM26.3809 33.9766C26.4123 33.9766 26.442 33.9642 26.475 33.9766C26.391 34.0466 26.2762 34.0865 26.1314 34.1323C26.0616 34.154 25.9565 34.1772 25.9436 34.1008C25.9307 34.0057 26.0074 34.016 26.0684 34.007C26.1483 33.9977 26.2881 33.9766 26.3809 33.9766ZM38.21 33.9766C38.1502 33.9952 38.12 34.1165 38.21 34.1323C38.2518 34.1076 38.2518 34.0525 38.2413 33.9766C38.2164 33.9519 38.2285 33.9704 38.21 33.9766ZM38.1778 34.2264C38.1495 34.2357 38.1159 34.2244 38.085 34.258C38.0871 34.3598 38.1039 34.4177 38.085 34.5077C38.1429 34.6207 38.2747 34.5526 38.3027 34.4762C38.3379 34.2864 38.2647 34.2026 38.1778 34.2264ZM38.9588 34.7258C38.8907 34.7218 38.8235 34.7439 38.771 34.7877C38.839 34.8976 38.9639 34.9177 39.1146 34.9443C39.1687 34.9044 39.1516 34.7945 39.1775 34.7246C39.1118 34.7246 39.0697 34.7308 38.9897 34.7246L38.9588 34.7258ZM23.1038 38.5636C23.1676 38.6453 23.2365 38.7403 23.3215 38.7837C23.3674 38.8052 23.4203 38.8022 23.4781 38.8154C23.525 38.8249 23.558 38.8646 23.603 38.8782C23.6989 38.9115 23.8386 38.9062 23.9147 38.941C24.0314 38.9912 24.0956 39.1945 24.1963 39.2527C24.2023 39.3106 24.1774 39.3657 24.1963 39.4084C24.2431 39.4722 24.3381 39.491 24.4139 39.5332C24.5067 39.5842 24.5457 39.7117 24.6325 39.7517C24.6639 39.7641 24.7105 39.7392 24.7574 39.7517C24.8772 39.7876 24.9034 39.9692 25.0072 39.9395C25.0742 39.921 25.0899 39.8166 25.1009 39.7517C25.1459 39.7015 25.1858 39.6269 25.2566 39.6269C25.3695 39.625 25.4025 39.7668 25.4444 39.8767C25.4663 39.9386 25.5215 39.9983 25.5372 40.0645C25.5627 40.23 25.5627 40.3984 25.5372 40.5639C25.5088 40.6468 25.3874 40.6908 25.3195 40.7814C25.2866 40.8254 25.2506 40.8774 25.2258 40.9062C25.1817 40.9613 25.1339 40.982 25.1009 41.0309C25.082 41.0589 25.085 41.1179 25.0688 41.1556C25.015 41.2726 24.9301 41.3596 24.976 41.4992C24.9949 41.5552 25.0688 41.619 25.0688 41.687C25.0688 41.7669 24.8951 41.7867 24.8819 41.874C24.8725 41.9377 24.9558 42.0696 24.976 42.1547C24.9888 42.2184 25.0939 42.2695 25.1317 42.3116C25.1955 42.3815 25.2616 42.4704 25.3195 42.5613C25.4334 42.7371 25.4872 42.9508 25.5992 43.1226C25.6589 43.2127 25.7791 43.2774 25.8191 43.3724C25.838 43.4191 25.8002 43.516 25.8191 43.5602C25.8839 43.7073 26.2016 43.862 26.3484 43.9338C26.4182 43.9689 26.4732 43.9916 26.5362 44.0276C26.6331 44.0826 26.8309 44.1925 26.8798 44.2773C26.9238 44.3541 26.9518 44.5299 26.9735 44.6519C27.0015 44.8116 26.9675 44.9474 26.9735 45.1203C26.9796 45.214 27.0049 45.275 27.0049 45.37C27.0049 45.4029 27.0069 45.4619 27.0049 45.4948C27.0029 45.6077 27.0143 45.7244 27.0049 45.8383C27.0004 45.9006 27.0004 45.963 27.0049 46.0253C27.0109 46.0822 27.0637 46.1011 27.0678 46.15C27.0709 46.2029 26.9989 46.2648 27.0049 46.3069C27.0177 46.4208 27.1389 46.5136 27.1606 46.6186C27.1795 46.7025 27.2024 46.8931 27.1927 46.9931C27.1832 47.0461 27.1677 47.1231 27.1606 47.181C27.1545 47.2259 27.1666 47.264 27.1606 47.3048C24.6727 45.7068 23.0102 42.9306 23.0102 39.752C23.0102 39.3445 23.051 38.9571 23.1038 38.5636ZM26.5363 39.4695C26.6241 39.4296 26.6071 39.5833 26.5363 39.5942C26.4693 39.6036 26.4715 39.5001 26.5363 39.4695Z" fill="white"/>
<defs>
<filter id="filter0_f_102_63" x="2.30002" y="2.29964" width="59.4004" height="59.4004" filterUnits="userSpaceOnUse" color-interpolation-filters="sRGB">
<feFlood flood-opacity="0" result="BackgroundImageFix"/>
<feBlend mode="normal" in="SourceGraphic" in2="BackgroundImageFix" result="shape"/>
<feGaussianBlur stdDeviation="1.10001" result="effect1_foregroundBlur_102_63"/>
</filter>
</defs>
</svg>
