<svg width="64" height="64" viewBox="0 0 64 64" fill="none" xmlns="http://www.w3.org/2000/svg">
<g opacity="0.3" filter="url(#filter0_f_102_71)">
<path d="M46.4981 4.49981H17.5019C10.321 4.49981 4.4998 10.321 4.4998 17.5019V46.4981C4.4998 53.679 10.321 59.5002 17.5019 59.5002H46.4981C53.679 59.5002 59.5002 53.679 59.5002 46.4981V17.5019C59.5002 10.321 53.679 4.49981 46.4981 4.49981Z" fill="black"/>
</g>
<path d="M17.503 4.49961C10.2998 4.49961 4.50113 10.2983 4.50113 17.5014V46.4974C4.50113 53.7006 10.2998 59.4992 17.503 59.4992H46.4989C53.7021 59.4992 59.5008 53.7006 59.5008 46.4974V17.5014C59.5008 10.2983 53.7021 4.49961 46.4989 4.49961H17.503Z" fill="#161929"/>
<path d="M18.3382 10.4997C13.9962 10.4997 10.5005 13.9958 10.5005 18.3375V45.6618C10.5005 50.0038 13.9965 53.4995 18.3382 53.4995H45.6625C50.0045 53.4995 53.5003 50.0035 53.5003 45.6618V18.3375C53.5003 13.9955 50.0042 10.4997 45.6625 10.4997H18.3382Z" fill="#FAFAFA"/>
<path opacity="0.6" d="M16.1158 15.9786C16.1347 16.1322 16.1533 16.2855 16.1744 16.4384H47.8323C47.852 16.2732 47.869 16.1417 47.8866 15.9786H16.1158Z" fill="#323549"/>
<path opacity="0.6" d="M16.1158 28.014C16.1347 28.1676 16.1533 28.3209 16.1744 28.4737H47.8323C47.852 28.3086 47.869 28.1771 47.8866 28.014H16.1158Z" fill="#323549"/>
<path opacity="0.6" d="M16.1158 45.7974C16.1347 45.951 16.1533 46.1043 16.1744 46.2572H47.8323C47.852 46.092 47.869 45.9605 47.8866 45.7974H16.1158Z" fill="#323549"/>
<path d="M6.62149 24.0077C5.44289 24.0077 4.49455 24.956 4.49455 26.1346V33.0429C4.49455 33.1287 4.51005 33.2099 4.51988 33.293C4.49909 35.336 4.50022 27.2252 4.50022 30.2812V31.1288L4.49827 46.4978C4.49827 46.6356 4.51377 46.7693 4.51793 46.906C4.52548 47.0994 4.52964 47.2937 4.54741 47.4841C5.02511 53.8928 10.1008 58.9696 16.5083 59.4511C16.8303 59.4817 17.1563 59.4995 17.4888 59.4999C17.4933 59.4999 17.4979 59.4999 17.5024 59.4999H46.4984C46.8361 59.4999 47.1676 59.4822 47.4945 59.4511C53.8858 58.969 58.9508 53.9144 59.4474 47.5272C59.4803 47.1887 59.5002 46.8462 59.5002 46.4979V30.8356C59.5002 30.8288 59.5021 30.8092 59.5021 30.816V34.3471C59.5021 35.5257 58.5537 32.2202 57.3752 32.2202H34.6719C33.6456 32.2202 32.8422 32.1509 32.1758 31.9741C31.5094 31.7973 30.9812 31.5119 30.5098 31.0834C30.0384 30.655 29.6229 30.0826 29.1817 29.3276C28.7404 28.5725 28.2732 27.6364 27.6973 26.4799C27.4195 25.7965 27.0316 25.2997 26.6075 24.9409C26.1833 24.5821 25.7236 24.3608 25.2969 24.2241C24.4436 23.9507 23.7286 24.019 23.7286 24.019H14.0781C14.0385 24.0168 14.0012 24.0073 13.9609 24.0073H10.5019L6.62149 24.0077Z" fill="#323549"/>
<defs>
<filter id="filter0_f_102_71" x="2.29979" y="2.29979" width="59.4004" height="59.4004" filterUnits="userSpaceOnUse" color-interpolation-filters="sRGB">
<feFlood flood-opacity="0" result="BackgroundImageFix"/>
<feBlend mode="normal" in="SourceGraphic" in2="BackgroundImageFix" result="shape"/>
<feGaussianBlur stdDeviation="1.10001" result="effect1_foregroundBlur_102_71"/>
</filter>
</defs>
</svg>
