<svg width="64" height="64" viewBox="0 0 64 64" fill="none" xmlns="http://www.w3.org/2000/svg">
<g opacity="0.3" filter="url(#filter0_f_102_16)">
<path d="M46.4981 4.49981H17.5019C10.321 4.49981 4.4998 10.321 4.4998 17.5019V46.4981C4.4998 53.679 10.321 59.5002 17.5019 59.5002H46.4981C53.679 59.5002 59.5002 53.679 59.5002 46.4981V17.5019C59.5002 10.321 53.679 4.49981 46.4981 4.49981Z" fill="black"/>
</g>
<path d="M17.5014 4.49961C10.2983 4.49961 4.49962 10.2983 4.49962 17.5014V46.4974C4.49962 53.7006 10.2983 59.4992 17.5014 59.4992H46.4974C53.7006 59.4992 59.4993 53.7006 59.4993 46.4974V17.5014C59.4993 10.2983 53.7006 4.49961 46.4974 4.49961H17.5014Z" fill="#161929"/>
<path d="M18.3375 10.4997C13.9955 10.4997 10.4997 13.9958 10.4997 18.3375V45.6618C10.4997 50.0038 13.9958 53.4995 18.3375 53.4995H45.6618C50.0038 53.4995 53.4995 50.0035 53.4995 45.6618V18.3375C53.4995 13.9955 50.0035 10.4997 45.6618 10.4997H18.3375Z" fill="#FAFAFA"/>
<path opacity="0.6" d="M16.1143 15.9786C16.1332 16.1322 16.1518 16.2855 16.1728 16.4384H47.8308C47.8504 16.2732 47.8674 16.1417 47.8851 15.9786H16.1143Z" fill="#323549"/>
<path d="M6.62261 13.568C5.44402 13.568 4.49568 14.5164 4.49568 15.6949V22.6033C4.49568 22.689 4.51118 22.7703 4.521 22.8533C4.50022 24.8963 4.50135 27.2252 4.50135 30.281V31.1286L4.4994 46.4976C4.4994 46.6354 4.5149 46.7692 4.51905 46.9058C4.52661 47.0993 4.53077 47.2936 4.54854 47.484C5.02624 53.8927 10.1019 58.9694 16.5095 59.4509C16.8314 59.4816 17.1574 59.4993 17.4899 59.4998C17.4945 59.4998 17.499 59.4998 17.5035 59.4998H46.4995C46.8373 59.4998 47.1688 59.482 47.4956 59.4509C53.8869 58.9689 58.9519 53.9142 59.4486 47.5271C59.4815 47.1886 59.5013 46.846 59.5013 46.4978V30.8355C59.5014 30.8287 59.5033 30.8226 59.5033 30.8158V23.9075C59.5033 22.7289 58.5549 21.7805 57.3763 21.7805H34.673C33.6468 21.7805 32.8433 21.7112 32.1769 21.5344C31.5105 21.3576 30.9823 21.0723 30.5109 20.6438C30.0395 20.2153 29.624 19.643 29.1828 18.888C28.7416 18.1329 28.2743 17.1967 27.6984 16.0403C27.4207 15.3569 27.0328 14.86 26.6086 14.5012C26.1844 14.1424 25.7247 13.9211 25.298 13.7844C24.4447 13.511 23.7297 13.5794 23.7297 13.5794H14.0792C14.0396 13.5772 14.0023 13.5676 13.962 13.5676H10.5031L6.62261 13.568Z" fill="#323549"/>
<path d="M34.25 31.7619C31.1229 31.7619 28.4343 33.5658 27.2479 36.1485C26.6133 35.6562 25.8144 35.3633 24.9491 35.3633C22.9108 35.3633 21.2532 36.99 21.201 39.0157C19.0972 39.8047 17.5995 41.8335 17.5995 44.213C17.5995 47.0237 19.6899 49.3468 22.4003 49.7131V49.7619H41.5996V49.754C44.2766 49.5987 46.4004 47.378 46.4004 44.6621C46.4004 42.0429 44.4248 39.885 41.8827 39.5955C41.8936 39.4358 41.9004 39.2754 41.9004 39.1131C41.9004 35.0538 38.4749 31.7619 34.25 31.7619Z" fill="white"/>
<defs>
<filter id="filter0_f_102_16" x="2.29979" y="2.29979" width="59.4004" height="59.4004" filterUnits="userSpaceOnUse" color-interpolation-filters="sRGB">
<feFlood flood-opacity="0" result="BackgroundImageFix"/>
<feBlend mode="normal" in="SourceGraphic" in2="BackgroundImageFix" result="shape"/>
<feGaussianBlur stdDeviation="1.10001" result="effect1_foregroundBlur_102_16"/>
</filter>
</defs>
</svg>
