<svg width="64" height="64" viewBox="0 0 64 64" fill="none" xmlns="http://www.w3.org/2000/svg">
<g opacity="0.3" filter="url(#filter0_f_102_131)">
<path d="M46.4983 4.49984H17.5021C10.3213 4.49984 4.50004 10.3211 4.50004 17.5019V46.4981C4.50004 53.679 10.3213 59.5002 17.5021 59.5002H46.4983C53.6792 59.5002 59.5004 53.679 59.5004 46.4981V17.5019C59.5004 10.3211 53.6792 4.49984 46.4983 4.49984Z" fill="black"/>
</g>
<path d="M17.4996 4.49984C10.2964 4.49984 4.49773 10.2985 4.49773 17.5017V46.4976C4.49773 53.7008 10.2964 59.4995 17.4996 59.4995H46.4955C53.6987 59.4995 59.4974 53.7008 59.4974 46.4976V17.5017C59.4974 10.2985 53.6987 4.49984 46.4955 4.49984H17.4996Z" fill="#161929"/>
<path d="M18.3349 10.5C13.9928 10.5 10.4971 13.996 10.4971 18.3377V45.662C10.4971 50.004 13.9931 53.4997 18.3349 53.4997H45.6591C50.0011 53.4997 53.4969 50.0037 53.4969 45.662V18.3377C53.4969 13.9957 50.0008 10.5 45.6591 10.5H18.3349Z" fill="#FAFAFA"/>
<path opacity="0.6" d="M16.1124 15.9789C16.1313 16.1324 16.1499 16.2857 16.171 16.4386H47.8289C47.8486 16.2734 47.8656 16.1419 47.8832 15.9789H16.1124Z" fill="#323549"/>
<path d="M6.62187 13.5682C5.44328 13.5682 4.49493 14.5166 4.49493 15.6952V22.6035C4.49493 22.6893 4.51043 22.7705 4.52026 22.8536C4.49947 24.8965 4.50061 27.2254 4.50061 30.2812V31.1289L4.49865 46.4979C4.49865 46.6356 4.51415 46.7694 4.51831 46.9061C4.52586 47.0995 4.53003 47.2938 4.54779 47.4842C5.02549 53.8929 10.1012 58.9697 16.5087 59.4512C16.8307 59.4818 17.1567 59.4996 17.4892 59.5C17.4937 59.5 17.4983 59.5 17.5028 59.5H46.4988C46.8365 59.5 47.168 59.4822 47.4948 59.4512C53.8862 58.9691 58.9512 53.9144 59.4478 47.5273C59.4807 47.1888 59.5006 46.8462 59.5006 46.498V30.8357C59.5006 30.8289 59.5025 30.8228 59.5025 30.816V23.9077C59.5025 22.7291 58.5541 21.7808 57.3756 21.7808H34.6723C33.646 21.7808 32.8426 21.7115 32.1762 21.5347C31.5098 21.3578 30.9816 21.0725 30.5102 20.644C30.0388 20.2155 29.6233 19.6432 29.1821 18.8882C28.7408 18.1331 28.2736 17.197 27.6977 16.0405C27.4199 15.3571 27.032 14.8603 26.6078 14.5015C26.1837 14.1427 25.724 13.9214 25.2973 13.7847C24.4439 13.5112 23.729 13.5796 23.729 13.5796H14.0785C14.0389 13.5774 14.0015 13.5679 13.9613 13.5679H10.5023L6.62187 13.5682Z" fill="#323549"/>
<path d="M41.9989 29.7629V49.763H41.1656V48.7104L39.499 48.7106V49.763H24.4989V48.7103H22.8322V49.763H21.9989V29.7628H22.8322V31.3417L24.4989 31.3415V29.7628H39.499V31.3415L41.1656 31.3418V29.7629H41.9989ZM38.6657 30.815H25.3324L25.3324 39.2367H38.6657L38.6657 30.815ZM41.1656 32.9207H39.499V34.4997H41.1656V32.9207ZM24.4991 32.9207H22.8325V34.4997H24.4991V32.9207ZM41.1656 36.0786H39.499V37.6576H41.1656V36.0786ZM24.4991 36.0786H22.8325V37.6576H24.4991V36.0786ZM41.1656 39.2365H39.499V40.8155H41.1656V39.2365ZM24.4991 39.2365H22.8325V40.8155H24.4991V39.2365ZM38.6658 40.2887H25.3325L25.3325 48.7108H38.6658L38.6658 40.2887ZM41.1658 42.3944H39.4991V43.9734H41.1658V42.3944ZM24.4992 42.3944H22.8326V43.9734H24.4992V42.3944ZM41.1658 45.5523H39.4991V47.1313H41.1658V45.5523ZM24.4992 45.5523H22.8326V47.1313H24.4992V45.5523Z" fill="white"/>
<defs>
<filter id="filter0_f_102_131" x="2.30002" y="2.29983" width="59.4004" height="59.4004" filterUnits="userSpaceOnUse" color-interpolation-filters="sRGB">
<feFlood flood-opacity="0" result="BackgroundImageFix"/>
<feBlend mode="normal" in="SourceGraphic" in2="BackgroundImageFix" result="shape"/>
<feGaussianBlur stdDeviation="1.10001" result="effect1_foregroundBlur_102_131"/>
</filter>
</defs>
</svg>
