<svg width="64" height="64" viewBox="0 0 64 64" fill="none" xmlns="http://www.w3.org/2000/svg">
<g opacity="0.3" filter="url(#filter0_f_102_148)">
<path d="M46.4983 4.49965H17.5021C10.3213 4.49965 4.50004 10.3209 4.50004 17.5017V46.4979C4.50004 53.6788 10.3213 59.5 17.5021 59.5H46.4983C53.6792 59.5 59.5004 53.6788 59.5004 46.4979V17.5017C59.5004 10.3209 53.6792 4.49965 46.4983 4.49965Z" fill="black"/>
</g>
<path d="M17.4996 4.49961C10.2964 4.49961 4.49773 10.2983 4.49773 17.5014V46.4974C4.49773 53.7006 10.2964 59.4993 17.4996 59.4993H46.4955C53.6987 59.4993 59.4974 53.7006 59.4974 46.4974V17.5014C59.4974 10.2983 53.6987 4.49961 46.4955 4.49961H17.4996Z" fill="#161929"/>
<path d="M18.3386 10.4997C13.9966 10.4997 10.5009 13.9958 10.5009 18.3375V45.6618C10.5009 50.0038 13.9969 53.4995 18.3386 53.4995H45.6629C50.0049 53.4995 53.5006 50.0035 53.5006 45.6618V18.3375C53.5006 13.9955 50.0046 10.4997 45.6629 10.4997H18.3386Z" fill="#FAFAFA"/>
<path opacity="0.6" d="M16.1124 15.9786C16.1313 16.1322 16.1499 16.2855 16.171 16.4384H47.8289C47.8486 16.2732 47.8656 16.1417 47.8832 15.9786H16.1124Z" fill="#323549"/>
<path d="M6.62187 13.568C5.44328 13.568 4.49493 14.5164 4.49493 15.6949V22.6033C4.49493 22.689 4.51043 22.7703 4.52026 22.8533C4.49947 24.8963 4.5006 27.2252 4.5006 30.281V31.1287L4.49865 46.4976C4.49865 46.6354 4.51415 46.7692 4.51831 46.9058C4.52586 47.0993 4.53002 47.2936 4.54778 47.484C5.02549 53.8927 10.1012 58.9694 16.5087 59.4509C16.8307 59.4816 17.1567 59.4993 17.4892 59.4998C17.4937 59.4998 17.4983 59.4998 17.5028 59.4998H46.4988C46.8365 59.4998 47.168 59.482 47.4948 59.4509C53.8861 58.9689 58.9512 53.9142 59.4478 47.5271C59.4807 47.1886 59.5006 46.846 59.5006 46.4978V30.8355C59.5006 30.8287 59.5025 30.8226 59.5025 30.8158V23.9075C59.5025 22.7289 58.5541 21.7805 57.3756 21.7805H34.6723C33.646 21.7805 32.8426 21.7112 32.1762 21.5344C31.5098 21.3576 30.9816 21.0723 30.5102 20.6438C30.0388 20.2153 29.6233 19.643 29.182 18.888C28.7408 18.1329 28.2736 17.1967 27.6977 16.0403C27.4199 15.3569 27.032 14.86 26.6078 14.5012C26.1837 14.1424 25.724 13.9211 25.2973 13.7844C24.4439 13.511 23.729 13.5794 23.729 13.5794H14.0785C14.0389 13.5772 14.0015 13.5676 13.9613 13.5676H10.5023L6.62187 13.568Z" fill="#323549"/>
<path d="M40.1752 35.8671V33.4146H37.7205L40.1752 35.8671Z" fill="white"/>
<path d="M23.8258 38.7271V49.7629L34.4529 49.7629V48.9455L24.6457 48.9454L24.6434 37.9096L23.8258 38.7271ZM39.3577 37.9096L39.3577 49.763H40.1776L40.1752 38.727L39.3577 37.9096Z" fill="white"/>
<path d="M42.5111 40.486L41.9263 41.057L32.0002 30.9337L22.0745 41.057L21.4898 40.486L32.0008 29.7638L42.5111 40.486Z" fill="white"/>
<path d="M31.183 41.8404C31.3906 41.7886 31.6664 41.7334 32.0102 41.675C32.3541 41.6166 32.7498 41.5874 33.1975 41.5874C33.5997 41.5874 33.9339 41.6458 34.1999 41.7626C34.4659 41.8729 34.6767 42.0319 34.8324 42.2395C34.9946 42.4406 35.1082 42.6839 35.173 42.9694C35.238 43.2548 35.2704 43.5695 35.2704 43.9133V49.7621L31.183 49.762L31.183 41.8404Z" fill="white"/>
<defs>
<filter id="filter0_f_102_148" x="2.30002" y="2.29964" width="59.4004" height="59.4004" filterUnits="userSpaceOnUse" color-interpolation-filters="sRGB">
<feFlood flood-opacity="0" result="BackgroundImageFix"/>
<feBlend mode="normal" in="SourceGraphic" in2="BackgroundImageFix" result="shape"/>
<feGaussianBlur stdDeviation="1.10001" result="effect1_foregroundBlur_102_148"/>
</filter>
</defs>
</svg>
