<svg width="64" height="64" viewBox="0 0 64 64" fill="none" xmlns="http://www.w3.org/2000/svg">
<g opacity="0.3" filter="url(#filter0_f_102_34)">
<path d="M46.4983 4.50003H17.5021C10.3213 4.50003 4.50004 10.3213 4.50004 17.5021V46.4983C4.50004 53.6792 10.3213 59.5004 17.5021 59.5004H46.4983C53.6792 59.5004 59.5004 53.6792 59.5004 46.4983V17.5021C59.5004 10.3213 53.6792 4.50003 46.4983 4.50003Z" fill="black"/>
</g>
<path d="M17.4996 4.49999C10.2964 4.49999 4.49773 10.2987 4.49773 17.5018V46.4978C4.49773 53.701 10.2964 59.4996 17.4996 59.4996H46.4955C53.6987 59.4996 59.4974 53.701 59.4974 46.4978V17.5018C59.4974 10.2987 53.6987 4.49999 46.4955 4.49999H17.4996Z" fill="#161D29"/>
<path d="M18.3349 10.5001C13.9928 10.5001 10.4971 13.9962 10.4971 18.3379V45.6621C10.4971 50.0041 13.9931 53.4999 18.3349 53.4999H45.6591C50.0011 53.4999 53.4969 50.0038 53.4969 45.6621V18.3379C53.4969 13.9959 50.0008 10.5001 45.6591 10.5001H18.3349Z" fill="#FAFAFA"/>
<path opacity="0.6" d="M16.1124 15.979C16.1313 16.1325 16.1499 16.2858 16.171 16.4387H47.8289C47.8486 16.2736 47.8656 16.1421 47.8832 15.979H16.1124Z" fill="#474D59"/>
<path d="M6.62187 13.5684C5.44328 13.5684 4.49493 14.5168 4.49493 15.6953V22.6037C4.49493 22.6894 4.51043 22.7707 4.52026 22.8537C4.49947 24.8967 4.50061 27.2256 4.50061 30.2814V31.129L4.49865 46.498C4.49865 46.6358 4.51415 46.7696 4.51831 46.9062C4.52586 47.0997 4.53003 47.2939 4.54779 47.4844C5.02549 53.893 10.1012 58.9698 16.5087 59.4513C16.8307 59.4819 17.1567 59.4997 17.4892 59.5002C17.4937 59.5002 17.4983 59.5002 17.5028 59.5002H46.4988C46.8365 59.5002 47.168 59.4824 47.4948 59.4513C53.8861 58.9692 58.9512 53.9146 59.4478 47.5274C59.4807 47.1889 59.5006 46.8464 59.5006 46.4981V30.8358C59.5006 30.829 59.5025 30.823 59.5025 30.8162V23.9078C59.5025 22.7292 58.5541 21.7809 57.3756 21.7809H34.6723C33.646 21.7809 32.8426 21.7116 32.1762 21.5348C31.5098 21.358 30.9816 21.0727 30.5102 20.6442C30.0388 20.2157 29.6233 19.6433 29.1821 18.8883C28.7408 18.1333 28.2736 17.1971 27.6977 16.0407C27.4199 15.3573 27.032 14.8604 26.6078 14.5016C26.1837 14.1428 25.724 13.9215 25.2973 13.7848C24.4439 13.5114 23.729 13.5797 23.729 13.5797H14.0785C14.0389 13.5776 14.0015 13.568 13.9613 13.568H10.5023L6.62187 13.5684Z" fill="#474D59"/>
<path d="M26.3977 48.9623V49.7627H37.6025V48.9623H26.3977Z" fill="white"/>
<path d="M29.599 29.7535V37.7555L27.1979 37.7571C27.1979 37.7571 29.0653 42.1087 32.0001 46.3301C34.9349 42.1091 36.8023 37.7571 36.8023 37.7571L34.4012 37.7555V29.7535H29.599ZM30.3993 30.5539H33.6007V38.5559L35.5297 38.5571C35.009 39.6891 33.9066 41.9214 32 44.8419C30.0934 41.9214 28.9911 39.689 28.4703 38.5571L30.3993 38.5559V30.5539Z" fill="white"/>
<defs>
<filter id="filter0_f_102_34" x="2.30002" y="2.30001" width="59.4004" height="59.4004" filterUnits="userSpaceOnUse" color-interpolation-filters="sRGB">
<feFlood flood-opacity="0" result="BackgroundImageFix"/>
<feBlend mode="normal" in="SourceGraphic" in2="BackgroundImageFix" result="shape"/>
<feGaussianBlur stdDeviation="1.10001" result="effect1_foregroundBlur_102_34"/>
</filter>
</defs>
</svg>
