<svg width="64" height="64" viewBox="0 0 64 64" fill="none" xmlns="http://www.w3.org/2000/svg">
<g opacity="0.3" filter="url(#filter0_f_102_99)">
<path d="M46.498 4.4998H17.502C10.3212 4.4998 4.5 10.321 4.5 17.5018V46.4978C4.5 53.6786 10.3212 59.4998 17.502 59.4998H46.498C53.6788 59.4998 59.5 53.6786 59.5 46.4978V17.5018C59.5 10.321 53.6788 4.4998 46.498 4.4998Z" fill="black"/>
</g>
<path d="M17.5 4.4998C10.2968 4.4998 4.49799 10.2985 4.49799 17.5018V46.4978C4.49799 53.701 10.2967 59.4998 17.5 59.4998H46.496C53.6992 59.4998 59.498 53.7011 59.498 46.4978V17.5018C59.498 10.2986 53.6993 4.4998 46.496 4.4998H17.5Z" fill="#161D29"/>
<path d="M18.34 10.4999C13.998 10.4999 10.5022 13.996 10.5022 18.3377V45.6617C10.5022 50.0037 13.9982 53.4995 18.34 53.4995H45.664C50.006 53.4995 53.5018 50.0034 53.5018 45.6617V18.3377C53.5018 13.9957 50.0057 10.4999 45.664 10.4999H18.34Z" fill="#FAFAFA"/>
<path opacity="0.6" d="M16.12 15.9788C16.1389 16.1323 16.1574 16.2856 16.1785 16.4385H47.8365C47.8561 16.2733 47.8732 16.1419 47.8908 15.9788H16.12Z" fill="#474D59"/>
<path d="M6.62001 13.5682C5.44141 13.5682 4.4931 14.5166 4.4931 15.6951V22.6035C4.4931 22.6892 4.5086 22.7705 4.5184 22.8535C4.4976 24.8965 4.4987 27.2254 4.4987 30.2812V31.1289H4.4967V46.4979C4.4967 46.6356 4.5122 46.7694 4.5164 46.9061C4.5244 47.0995 4.52811 47.2938 4.54591 47.4842C5.02361 53.8929 10.0993 58.9692 16.5069 59.4512C16.8289 59.4818 17.1549 59.4996 17.4874 59.5C17.4924 59.5 17.4964 59.5 17.501 59.5H46.497C46.8347 59.5 47.1662 59.4823 47.4931 59.4512C53.8844 58.9691 58.9491 53.9145 59.4461 47.5272C59.4789 47.1887 59.4988 46.8461 59.4988 46.4979V30.8359C59.4988 30.8291 59.5008 30.823 59.5008 30.8162V23.9079C59.5008 22.7293 58.5524 21.781 57.3739 21.781H34.6709C33.6447 21.781 32.8412 21.7117 32.1748 21.5349C31.5084 21.3581 30.9802 21.0727 30.5088 20.6442C30.0374 20.2158 29.6219 19.6434 29.1807 18.8883C28.7395 18.1333 28.2722 17.1971 27.6963 16.0406C27.4185 15.3573 27.0306 14.8603 26.6065 14.5015C26.1823 14.1427 25.7226 13.9215 25.296 13.7847C24.4426 13.5113 23.7276 13.5797 23.7276 13.5797H14.0771C14.0375 13.5775 14.0001 13.5679 13.9599 13.5679H10.5009L6.62001 13.5682Z" fill="#474D59"/>
<path d="M32 30.294L22 50.294H25.334L35.334 30.294H32Z" fill="#F5F5F5"/>
<path d="M32 48.628V50.294H42V48.628H32Z" fill="#F5F5F5"/>
<defs>
<filter id="filter0_f_102_99" x="2.3" y="2.2998" width="59.4" height="59.4" filterUnits="userSpaceOnUse" color-interpolation-filters="sRGB">
<feFlood flood-opacity="0" result="BackgroundImageFix"/>
<feBlend mode="normal" in="SourceGraphic" in2="BackgroundImageFix" result="shape"/>
<feGaussianBlur stdDeviation="1.1" result="effect1_foregroundBlur_102_99"/>
</filter>
</defs>
</svg>
