<svg width="64" height="64" viewBox="0 0 64 64" fill="none" xmlns="http://www.w3.org/2000/svg">
<g opacity="0.3" filter="url(#filter0_f_102_55)">
<path d="M46.4983 4.49981H17.5021C10.3213 4.49981 4.50003 10.321 4.50003 17.5019V46.4981C4.50003 53.679 10.3213 59.5002 17.5021 59.5002H46.4983C53.6792 59.5002 59.5004 53.679 59.5004 46.4981V17.5019C59.5004 10.321 53.6792 4.49981 46.4983 4.49981Z" fill="black"/>
</g>
<path d="M17.4996 4.49977C10.2964 4.49977 4.49772 10.2984 4.49772 17.5016V46.4976C4.49772 53.7007 10.2964 59.4994 17.4996 59.4994H46.4955C53.6987 59.4994 59.4974 53.7007 59.4974 46.4976V17.5016C59.4974 10.2984 53.6987 4.49977 46.4955 4.49977H17.4996Z" fill="#161D29"/>
<path d="M18.3348 10.5C13.9928 10.5 10.4971 13.9961 10.4971 18.3378V45.662C10.4971 50.004 13.9931 53.4998 18.3348 53.4998H45.6591C50.0011 53.4998 53.4969 50.0037 53.4969 45.662V18.3378C53.4969 13.9958 50.0008 10.5 45.6591 10.5H18.3348Z" fill="#FAFAFA"/>
<path opacity="0.6" d="M16.1124 15.9789C16.1313 16.1324 16.1499 16.2857 16.171 16.4386H47.8289C47.8485 16.2735 47.8656 16.142 47.8832 15.9789H16.1124Z" fill="#474D59"/>
<path d="M6.62186 13.5683C5.44327 13.5683 4.49493 14.5167 4.49493 15.6952V22.6036C4.49493 22.6893 4.51042 22.7706 4.52025 22.8536C4.49946 24.8966 4.5006 27.2255 4.5006 30.2813V31.1289L4.49865 46.4979C4.49865 46.6357 4.51415 46.7694 4.51831 46.9061C4.52586 47.0995 4.53002 47.2938 4.54778 47.4842C5.02549 53.8929 10.1012 58.9697 16.5087 59.4512C16.8307 59.4818 17.1567 59.4996 17.4892 59.5C17.4937 59.5001 17.4983 59.5 17.5028 59.5H46.4988C46.8365 59.5 47.168 59.4823 47.4948 59.4512C53.8861 58.9691 58.9512 53.9145 59.4478 47.5273C59.4807 47.1888 59.5006 46.8463 59.5006 46.498V30.8357C59.5006 30.8289 59.5025 30.8229 59.5025 30.8161V23.9077C59.5025 22.7291 58.5541 21.7808 57.3756 21.7808H34.6723C33.646 21.7808 32.8426 21.7115 32.1762 21.5347C31.5098 21.3579 30.9816 21.0726 30.5102 20.6441C30.0388 20.2156 29.6233 19.6432 29.182 18.8882C28.7408 18.1332 28.2736 17.197 27.6977 16.0406C27.4199 15.3572 27.032 14.8603 26.6078 14.5015C26.1836 14.1427 25.724 13.9214 25.2973 13.7847C24.4439 13.5113 23.7289 13.5796 23.7289 13.5796H14.0785C14.0389 13.5774 14.0015 13.5679 13.9613 13.5679H10.5023L6.62186 13.5683Z" fill="#474D59"/>
<path d="M38.8997 29.7629C38.6676 29.7603 38.3589 29.797 37.9484 29.8587L30.5343 30.9573C28.885 31.3085 28.885 31.4173 28.885 32.8107V45.8768C28.7634 45.7917 28.6434 45.7062 28.5178 45.622C27.9938 45.2708 27.4354 45.0213 26.6853 45.0213C25.7457 45.0213 25.1852 45.3812 24.8459 45.8551C24.5067 46.329 24.3942 46.9263 24.3942 47.3881C24.3942 47.9449 24.5845 48.5391 24.9969 48.9919C25.4093 49.4448 26.0433 49.7621 26.955 49.7621C27.9845 49.7621 28.7087 49.4745 29.1181 48.913C29.4404 48.471 29.6185 47.8806 29.682 47.1521C29.6911 47.0637 29.6972 46.971 29.7028 46.8775C29.7115 46.7335 29.7096 46.4641 29.7096 46.4641V36.1582C29.7096 34.9215 29.7095 34.8477 31.3594 34.5657L37.1259 33.7492C38.7529 33.5363 38.7781 33.684 38.7785 34.5733V44.2279C38.6569 44.1428 38.537 44.0573 38.4113 43.973C37.8873 43.6219 37.329 43.3724 36.5788 43.3724C35.6392 43.3724 35.0787 43.7322 34.7395 44.2061C34.4003 44.68 34.2878 45.2774 34.2878 45.7391C34.2878 46.2959 34.478 46.8901 34.8904 47.343C35.3028 47.7959 35.9369 48.1131 36.8485 48.1131C37.878 48.1131 38.6022 47.8255 39.0116 47.2641C39.3339 46.8221 39.512 46.2317 39.5756 45.5032C39.5846 45.4148 39.5907 45.3221 39.5964 45.2286C39.605 45.0846 39.6032 44.8152 39.6032 44.8152V31.2146C39.6032 30.13 39.5958 29.7706 38.8997 29.7629Z" fill="white"/>
<defs>
<filter id="filter0_f_102_55" x="2.30001" y="2.29979" width="59.4004" height="59.4004" filterUnits="userSpaceOnUse" color-interpolation-filters="sRGB">
<feFlood flood-opacity="0" result="BackgroundImageFix"/>
<feBlend mode="normal" in="SourceGraphic" in2="BackgroundImageFix" result="shape"/>
<feGaussianBlur stdDeviation="1.10001" result="effect1_foregroundBlur_102_55"/>
</filter>
</defs>
</svg>
