<svg width="64" height="64" viewBox="0 0 64 64" fill="none" xmlns="http://www.w3.org/2000/svg">
<g clip-path="url(#clip0_102_24)">
<g opacity="0.3" filter="url(#filter0_f_102_24)">
<path d="M46.4983 4.49984H17.5021C10.3213 4.49984 4.50003 10.3211 4.50003 17.5019V46.4981C4.50003 53.679 10.3213 59.5002 17.5021 59.5002H46.4983C53.6792 59.5002 59.5004 53.679 59.5004 46.4981V17.5019C59.5004 10.3211 53.6792 4.49984 46.4983 4.49984Z" fill="black"/>
</g>
<path d="M17.4996 4.49981C10.2964 4.49981 4.49773 10.2985 4.49773 17.5016V46.4976C4.49773 53.7008 10.2964 59.4994 17.4996 59.4994H46.4955C53.6987 59.4994 59.4974 53.7008 59.4974 46.4976V17.5016C59.4974 10.2985 53.6987 4.49981 46.4955 4.49981H17.4996Z" fill="#161D29"/>
<path d="M18.3348 10.5C13.9928 10.5 10.4971 13.9961 10.4971 18.3378V45.6621C10.4971 50.0041 13.9931 53.4998 18.3348 53.4998H45.6591C50.0011 53.4998 53.4969 50.0038 53.4969 45.6621V18.3378C53.4969 13.9958 50.0008 10.5 45.6591 10.5H18.3348Z" fill="#FAFAFA"/>
<path opacity="0.6" d="M16.1124 15.979C16.1313 16.1325 16.1499 16.2858 16.171 16.4387H47.8289C47.8486 16.2735 47.8656 16.142 47.8832 15.979H16.1124Z" fill="#474D59"/>
<path d="M6.62187 13.5683C5.44328 13.5683 4.49493 14.5167 4.49493 15.6953V22.6036C4.49493 22.6893 4.51043 22.7706 4.52026 22.8536C4.49947 24.8966 4.50061 27.2255 4.50061 30.2813V31.129L4.49865 46.498C4.49865 46.6357 4.51415 46.7695 4.51831 46.9061C4.52586 47.0996 4.53003 47.2939 4.54779 47.4843C5.02549 53.893 10.1012 58.9697 16.5087 59.4513C16.8307 59.4819 17.1567 59.4996 17.4892 59.5001C17.4937 59.5001 17.4983 59.5001 17.5028 59.5001H46.4988C46.8365 59.5001 47.168 59.4823 47.4948 59.4513C53.8861 58.9692 58.9512 53.9145 59.4478 47.5274C59.4807 47.1889 59.5006 46.8463 59.5006 46.4981V30.8358C59.5006 30.829 59.5025 30.8229 59.5025 30.8161V23.9078C59.5025 22.7292 58.5541 21.7808 57.3756 21.7808H34.6723C33.646 21.7808 32.8426 21.7115 32.1762 21.5347C31.5098 21.3579 30.9816 21.0726 30.5102 20.6441C30.0388 20.2156 29.6233 19.6433 29.1821 18.8883C28.7408 18.1332 28.2736 17.197 27.6977 16.0406C27.4199 15.3572 27.032 14.8603 26.6078 14.5015C26.1837 14.1427 25.724 13.9214 25.2973 13.7847C24.4439 13.5113 23.729 13.5797 23.729 13.5797H14.0785C14.0389 13.5775 14.0015 13.5679 13.9613 13.5679H10.5023L6.62187 13.5683Z" fill="#474D59"/>
<path d="M24.0001 29.7538V49.7539H36.5998L39.9998 46.3539V29.7539L24.0001 29.7538ZM24.8001 30.5538H39.2V45.7538H36V48.9538H24.7999L24.8001 30.5538ZM27.2001 32.9538V33.7538H36.8003V32.9538H27.2001ZM27.2001 35.3538V36.1538H36.8003V35.3538H27.2001ZM27.2001 37.7538V38.5538H36.8003V37.7538H27.2001ZM27.2001 40.1538V40.9538H32.0002V40.1538H27.2001Z" fill="white"/>
</g>
<defs>
<filter id="filter0_f_102_24" x="2.30001" y="2.29983" width="59.4004" height="59.4004" filterUnits="userSpaceOnUse" color-interpolation-filters="sRGB">
<feFlood flood-opacity="0" result="BackgroundImageFix"/>
<feBlend mode="normal" in="SourceGraphic" in2="BackgroundImageFix" result="shape"/>
<feGaussianBlur stdDeviation="1.10001" result="effect1_foregroundBlur_102_24"/>
</filter>
<clipPath id="clip0_102_24">
<rect width="64" height="64" fill="white"/>
</clipPath>
</defs>
</svg>
