<svg width="64" height="64" viewBox="0 0 64 64" fill="none" xmlns="http://www.w3.org/2000/svg">
<g opacity="0.3" filter="url(#filter0_f_102_121)">
<path d="M46.4983 4.49965H17.5021C10.3213 4.49965 4.50003 10.3209 4.50003 17.5017V46.4979C4.50003 53.6788 10.3213 59.5 17.5021 59.5H46.4983C53.6792 59.5 59.5004 53.6788 59.5004 46.4979V17.5017C59.5004 10.3209 53.6792 4.49965 46.4983 4.49965Z" fill="black"/>
</g>
<path d="M17.5033 4.49961C10.3002 4.49961 4.50151 10.2983 4.50151 17.5014V46.4974C4.50151 53.7006 10.3002 59.4993 17.5033 59.4993H46.4993C53.7025 59.4993 59.5011 53.7006 59.5011 46.4974V17.5014C59.5011 10.2983 53.7025 4.49961 46.4993 4.49961H17.5033Z" fill="#161D29"/>
<path d="M18.3386 10.4997C13.9966 10.4997 10.5009 13.9958 10.5009 18.3375V45.6618C10.5009 50.0038 13.9969 53.4995 18.3386 53.4995H45.6629C50.0049 53.4995 53.5006 50.0035 53.5006 45.6618V18.3375C53.5006 13.9955 50.0046 10.4997 45.6629 10.4997H18.3386Z" fill="#FAFAFA"/>
<path opacity="0.6" d="M16.1162 15.9786C16.1351 16.1322 16.1536 16.2855 16.1747 16.4384H47.8327C47.8523 16.2732 47.8693 16.1417 47.887 15.9786H16.1162Z" fill="#474D59"/>
<path d="M6.62187 13.568C5.44328 13.568 4.49493 14.5164 4.49493 15.6949V22.6033C4.49493 22.689 4.51043 22.7703 4.52026 22.8533C4.49947 24.8963 4.50061 27.2252 4.50061 30.281V31.1286L4.49865 46.4976C4.49865 46.6354 4.51416 46.7692 4.51831 46.9058C4.52587 47.0993 4.53003 47.2936 4.54779 47.484C5.02549 53.8927 10.1012 58.9694 16.5087 59.4509C16.8307 59.4816 17.1567 59.4993 17.4892 59.4998C17.4937 59.4998 17.4983 59.4998 17.5028 59.4998H46.4988C46.8365 59.4998 47.168 59.482 47.4948 59.4509C53.8861 58.9689 58.9512 53.9142 59.4478 47.5271C59.4807 47.1886 59.5006 46.846 59.5006 46.4978V30.8355C59.5006 30.8287 59.5025 30.8226 59.5025 30.8158V23.9075C59.5025 22.7289 58.5541 21.7805 57.3756 21.7805H34.6723C33.646 21.7805 32.8426 21.7112 32.1762 21.5344C31.5098 21.3576 30.9816 21.0723 30.5102 20.6438C30.0388 20.2153 29.6233 19.643 29.1821 18.888C28.7408 18.1329 28.2736 17.1967 27.6977 16.0403C27.4199 15.3569 27.032 14.86 26.6078 14.5012C26.1837 14.1424 25.724 13.9211 25.2973 13.7844C24.4439 13.511 23.729 13.5794 23.729 13.5794H14.0785C14.0389 13.5772 14.0015 13.5676 13.9613 13.5676H10.5023L6.62187 13.568Z" fill="#474D59"/>
<path d="M34.84 29.7629C34.2603 29.7629 34.0303 30.0207 33.8932 30.2949C33.7561 30.5691 33.7531 30.8498 33.7531 30.8498V43.9807L33.7628 44.0283C33.7974 44.1795 33.9367 44.7269 34.2562 45.6651C34.5753 46.602 35.702 48.6712 36.3617 49.9433C37.0208 48.6721 38.1483 46.602 38.4673 45.6651C38.7868 44.7269 38.9266 44.1758 38.9607 44.0279L38.9705 43.9807V30.8499C38.9705 30.2701 38.7127 30.0401 38.4385 29.903C38.1641 29.7659 37.8835 29.7629 37.8835 29.7629L34.84 29.7629ZM34.6226 30.6325H38.1009V33.2411H34.6226V30.6325ZM34.6226 42.8064H38.1009V43.8738C38.0726 43.994 37.9468 44.4958 37.644 45.3849C37.4798 45.8674 36.9227 46.9653 36.3617 48.0502C35.8008 46.9654 35.2438 45.8675 35.0795 45.3849C34.7766 44.4955 34.6511 43.9965 34.6226 43.8751V42.8064Z" fill="white"/>
<path d="M25.0574 29.7629V49.7629H31.1443V29.7629H25.0574ZM25.9269 30.6325H30.2748V32.3716H28.5356V33.2411H30.2748V35.8498H28.5356V36.7194H30.2748V39.3281H28.5356V40.1977H30.2748V42.8064H28.5356V43.6759H30.2748V46.2846H28.5356V47.1542H30.2748V48.8933H25.9269V30.8498V30.6325Z" fill="white"/>
<defs>
<filter id="filter0_f_102_121" x="2.30001" y="2.29964" width="59.4004" height="59.4004" filterUnits="userSpaceOnUse" color-interpolation-filters="sRGB">
<feFlood flood-opacity="0" result="BackgroundImageFix"/>
<feBlend mode="normal" in="SourceGraphic" in2="BackgroundImageFix" result="shape"/>
<feGaussianBlur stdDeviation="1.10001" result="effect1_foregroundBlur_102_121"/>
</filter>
</defs>
</svg>
