<svg width="64" height="64" viewBox="0 0 64 64" fill="none" xmlns="http://www.w3.org/2000/svg">
<g opacity="0.3" filter="url(#filter0_f_102_2)">
<path d="M46.4983 4.50003H17.5021C10.3213 4.50003 4.50003 10.3213 4.50003 17.5021V46.4983C4.50003 53.6792 10.3213 59.5004 17.5021 59.5004H46.4983C53.6792 59.5004 59.5004 53.6792 59.5004 46.4983V17.5021C59.5004 10.3213 53.6792 4.50003 46.4983 4.50003Z" fill="#242932"/>
</g>
<path d="M17.5034 4.49999C10.3002 4.49999 4.50153 10.2987 4.50153 17.5018V46.4978C4.50153 53.701 10.3002 59.4996 17.5034 59.4996H46.4993C53.7025 59.4996 59.5012 53.701 59.5012 46.4978V17.5018C59.5012 10.2987 53.7025 4.49999 46.4993 4.49999H17.5034Z" fill="#161D29"/>
<path d="M18.3386 10.5001C13.9966 10.5001 10.5009 13.9962 10.5009 18.3379V45.6621C10.5009 50.0041 13.9969 53.4999 18.3386 53.4999H45.6629C50.0049 53.4999 53.5006 50.0038 53.5006 45.6621V18.3379C53.5006 13.9959 50.0046 10.5001 45.6629 10.5001H18.3386Z" fill="#FAFAFA"/>
<path opacity="0.6" d="M16.1162 15.979C16.1351 16.1326 16.1536 16.2859 16.1747 16.4387H47.8327C47.8523 16.2736 47.8693 16.1421 47.887 15.979H16.1162Z" fill="#474D59"/>
<path d="M6.62565 13.5684C5.44706 13.5684 4.49872 14.5168 4.49872 15.6953V22.6037C4.49872 22.6894 4.51422 22.7707 4.52404 22.8537C4.50326 24.8967 4.50438 27.2256 4.50438 30.2814V31.129L4.50244 46.498C4.50244 46.6358 4.51793 46.7696 4.52209 46.9062C4.52965 47.0997 4.53381 47.2939 4.55157 47.4844C5.02928 53.893 10.1049 58.9698 16.5125 59.4513C16.8344 59.4819 17.1605 59.4997 17.493 59.5002C17.4975 59.5002 17.502 59.5002 17.5066 59.5002H46.5025C46.8403 59.5002 47.1718 59.4824 47.4986 59.4513C53.8899 58.9692 58.955 53.9146 59.4516 47.5274C59.4845 47.1889 59.5043 46.8464 59.5043 46.4981V30.8358C59.5044 30.829 59.5063 30.823 59.5063 30.8162V23.9078C59.5063 22.7292 58.5579 21.7809 57.3794 21.7809H34.676C33.6498 21.7809 32.8464 21.7116 32.18 21.5348C31.5135 21.358 30.9853 21.0727 30.514 20.6442C30.0426 20.2157 29.6271 19.6433 29.1858 18.8883C28.7446 18.1333 28.2774 17.1971 27.7015 16.0407C27.4237 15.3573 27.0358 14.8604 26.6116 14.5016C26.1874 14.1428 25.7278 13.9215 25.3011 13.7848C24.4477 13.5114 23.7327 13.5797 23.7327 13.5797H14.0823C14.0427 13.5776 14.0053 13.568 13.9651 13.568H10.5061L6.62565 13.5684Z" fill="#474D59"/>
<defs>
<filter id="filter0_f_102_2" x="2.30001" y="2.30001" width="59.4004" height="59.4004" filterUnits="userSpaceOnUse" color-interpolation-filters="sRGB">
<feFlood flood-opacity="0" result="BackgroundImageFix"/>
<feBlend mode="normal" in="SourceGraphic" in2="BackgroundImageFix" result="shape"/>
<feGaussianBlur stdDeviation="1.10001" result="effect1_foregroundBlur_102_2"/>
</filter>
</defs>
</svg>
