<svg width="64" height="64" viewBox="0 0 64 64" fill="none" xmlns="http://www.w3.org/2000/svg">
<g opacity="0.3" filter="url(#filter0_f_102_91)">
<path d="M46.4983 4.49981H17.5021C10.3213 4.49981 4.50003 10.321 4.50003 17.5019V46.4981C4.50003 53.679 10.3213 59.5002 17.5021 59.5002H46.4983C53.6792 59.5002 59.5004 53.679 59.5004 46.4981V17.5019C59.5004 10.321 53.6792 4.49981 46.4983 4.49981Z" fill="black"/>
</g>
<path d="M17.4996 4.49996C10.2964 4.49996 4.49774 10.2986 4.49774 17.5018V46.4978C4.49774 53.7009 10.2964 59.4996 17.4996 59.4996H46.4955C53.6987 59.4996 59.4974 53.7009 59.4974 46.4978V17.5018C59.4974 10.2986 53.6987 4.49996 46.4955 4.49996H17.4996Z" fill="#161D29"/>
<path d="M18.3386 10.5001C13.9966 10.5001 10.5009 13.9961 10.5009 18.3378V45.6621C10.5009 50.0041 13.9969 53.4998 18.3386 53.4998H45.6629C50.0049 53.4998 53.5006 50.0038 53.5006 45.6621V18.3378C53.5006 13.9958 50.0046 10.5001 45.6629 10.5001H18.3386Z" fill="#FAFAFA"/>
<path opacity="0.6" d="M16.1124 15.979C16.1313 16.1325 16.1498 16.2858 16.1709 16.4387H47.8289C47.8485 16.2735 47.8655 16.142 47.8832 15.979H16.1124Z" fill="#474D59"/>
<path d="M6.62187 13.5684C5.44328 13.5684 4.49493 14.5167 4.49493 15.6953V22.6036C4.49493 22.6894 4.51043 22.7706 4.52026 22.8537C4.49947 24.8967 4.50061 27.2255 4.50061 30.2813V31.129L4.49865 46.498C4.49865 46.6358 4.51415 46.7695 4.51831 46.9062C4.52586 47.0996 4.53003 47.2939 4.54779 47.4843C5.02549 53.893 10.1012 58.9698 16.5087 59.4513C16.8307 59.4819 17.1567 59.4997 17.4892 59.5001C17.4937 59.5001 17.4983 59.5001 17.5028 59.5001H46.4988C46.8365 59.5001 47.168 59.4824 47.4948 59.4513C53.8861 58.9692 58.9512 53.9146 59.4478 47.5274C59.4807 47.1889 59.5006 46.8464 59.5006 46.4981V30.8358C59.5006 30.829 59.5025 30.823 59.5025 30.8162V23.9078C59.5025 22.7292 58.5541 21.7809 57.3756 21.7809H34.6723C33.646 21.7809 32.8426 21.7116 32.1762 21.5348C31.5098 21.358 30.9816 21.0726 30.5102 20.6441C30.0388 20.2157 29.6233 19.6433 29.1821 18.8883C28.7408 18.1332 28.2736 17.1971 27.6977 16.0406C27.4199 15.3572 27.032 14.8604 26.6078 14.5016C26.1837 14.1428 25.724 13.9215 25.2973 13.7848C24.4439 13.5114 23.729 13.5797 23.729 13.5797H14.0785C14.0389 13.5775 14.0015 13.568 13.9613 13.568H10.5023L6.62187 13.5684Z" fill="#474D59"/>
<path d="M42.392 33.104C42.392 31.2726 40.8985 29.779 39.067 29.779C37.2356 29.779 35.742 31.2726 35.742 33.104C35.742 34.9354 37.2356 36.429 39.067 36.429C40.8985 36.429 42.392 34.9354 42.392 33.104ZM42.392 46.4041C42.392 44.5726 40.8985 43.0791 39.067 43.0791C37.2356 43.0791 35.742 44.5727 35.742 46.4041C35.742 48.2355 37.2356 49.7291 39.067 49.7291C40.8985 49.7291 42.392 48.2355 42.392 46.4041ZM41.5608 33.104C41.5608 34.4862 40.4492 35.5978 39.067 35.5978C37.6849 35.5978 36.5733 34.4862 36.5733 33.104C36.5733 31.7218 37.6849 30.6103 39.067 30.6103C40.4492 30.6103 41.5608 31.7219 41.5608 33.104ZM41.5608 46.4041C41.5608 47.7863 40.4492 48.8978 39.067 48.8978C37.6849 48.8978 36.5733 47.7862 36.5733 46.4041C36.5733 45.0219 37.6849 43.9103 39.067 43.9103C40.4492 43.9103 41.5608 45.0219 41.5608 46.4041ZM35.1324 35.4152C34.9914 35.1776 34.8703 34.9273 34.7736 34.6652L27.7394 37.9756C27.1483 37.0482 26.1133 36.4292 24.936 36.4292C23.1045 36.4292 21.611 37.9227 21.611 39.7542C21.611 41.5856 23.1045 43.0791 24.936 43.0791C26.1131 43.0791 27.1483 42.4604 27.7394 41.5331L34.7736 44.8435C34.8703 44.5813 34.9913 44.3308 35.1324 44.0931L28.0959 40.7819C28.2018 40.4578 28.2607 40.1128 28.2607 39.7542C28.2607 39.3955 28.2018 39.0505 28.0959 38.7264L35.1324 35.4152ZM27.4296 39.7542C27.4296 41.1364 26.318 42.248 24.9358 42.248C23.5536 42.248 22.4421 41.1364 22.4421 39.7542C22.4421 38.3721 23.5537 37.2605 24.9358 37.2605C26.318 37.2605 27.4296 38.3721 27.4296 39.7542Z" fill="white"/>
<defs>
<filter id="filter0_f_102_91" x="2.30001" y="2.29979" width="59.4004" height="59.4004" filterUnits="userSpaceOnUse" color-interpolation-filters="sRGB">
<feFlood flood-opacity="0" result="BackgroundImageFix"/>
<feBlend mode="normal" in="SourceGraphic" in2="BackgroundImageFix" result="shape"/>
<feGaussianBlur stdDeviation="1.10001" result="effect1_foregroundBlur_102_91"/>
</filter>
</defs>
</svg>
