<svg width="64" height="64" viewBox="0 0 64 64" fill="none" xmlns="http://www.w3.org/2000/svg">
<g opacity="0.3" filter="url(#filter0_f_102_81)">
<path d="M46.4983 4.49981H17.5021C10.3213 4.49981 4.50003 10.321 4.50003 17.5019V46.4981C4.50003 53.679 10.3213 59.5002 17.5021 59.5002H46.4983C53.6792 59.5002 59.5004 53.679 59.5004 46.4981V17.5019C59.5004 10.321 53.6792 4.49981 46.4983 4.49981Z" fill="black"/>
</g>
<path d="M17.4996 4.49986C10.2964 4.49986 4.49773 10.2985 4.49773 17.5017V46.4977C4.49773 53.7008 10.2964 59.4995 17.4996 59.4995H46.4955C53.6987 59.4995 59.4974 53.7008 59.4974 46.4977V17.5017C59.4974 10.2985 53.6987 4.49986 46.4955 4.49986H17.4996Z" fill="#161D29"/>
<path d="M18.3386 10.5C13.9966 10.5 10.5009 13.996 10.5009 18.3377V45.662C10.5009 50.004 13.9969 53.4998 18.3386 53.4998H45.6629C50.0049 53.4998 53.5006 50.0037 53.5006 45.662V18.3377C53.5006 13.9957 50.0046 10.5 45.6629 10.5H18.3386Z" fill="#FAFAFA"/>
<path opacity="0.6" d="M16.1124 15.9789C16.1313 16.1324 16.1499 16.2857 16.171 16.4386H47.8289C47.8485 16.2734 47.8656 16.1419 47.8832 15.9789H16.1124Z" fill="#474D59"/>
<path d="M6.62187 13.5683C5.44328 13.5683 4.49493 14.5166 4.49493 15.6952V22.6035C4.49493 22.6893 4.51043 22.7705 4.52026 22.8536C4.49947 24.8966 4.5006 27.2254 4.5006 30.2812V31.1289L4.49865 46.4979C4.49865 46.6357 4.51415 46.7694 4.51831 46.9061C4.52586 47.0995 4.53002 47.2938 4.54778 47.4842C5.02549 53.8929 10.1012 58.9697 16.5087 59.4512C16.8307 59.4818 17.1567 59.4996 17.4892 59.5C17.4937 59.5 17.4983 59.5 17.5028 59.5H46.4988C46.8365 59.5 47.168 59.4823 47.4948 59.4512C53.8861 58.9691 58.9512 53.9145 59.4478 47.5273C59.4807 47.1888 59.5006 46.8463 59.5006 46.498V30.8357C59.5006 30.8289 59.5025 30.8229 59.5025 30.8161V23.9077C59.5025 22.7291 58.5541 21.7808 57.3756 21.7808H34.6723C33.646 21.7808 32.8426 21.7115 32.1762 21.5347C31.5098 21.3579 30.9816 21.0725 30.5102 20.644C30.0388 20.2156 29.6233 19.6432 29.1821 18.8882C28.7408 18.1331 28.2736 17.197 27.6977 16.0405C27.4199 15.3571 27.032 14.8603 26.6078 14.5015C26.1837 14.1427 25.724 13.9214 25.2973 13.7847C24.4439 13.5113 23.729 13.5796 23.729 13.5796H14.0785C14.0389 13.5774 14.0015 13.5679 13.9613 13.5679H10.5023L6.62187 13.5683Z" fill="#474D59"/>
<path d="M39.7272 29.761C37.7189 29.761 36.0909 31.3891 36.0909 33.3974C36.0909 35.4057 37.719 37.0338 39.7272 37.0338C41.7355 37.0338 43.3635 35.4057 43.3635 33.3974C43.3635 31.3891 41.7355 29.761 39.7272 29.761Z" fill="#F6F6F6"/>
<path d="M27.9092 36.8067L20.6366 49.7612H39.7268L33.5905 39.0796L31.3178 42.4887L27.9092 36.8067Z" fill="#F6F6F6"/>
<defs>
<filter id="filter0_f_102_81" x="2.30001" y="2.29979" width="59.4004" height="59.4004" filterUnits="userSpaceOnUse" color-interpolation-filters="sRGB">
<feFlood flood-opacity="0" result="BackgroundImageFix"/>
<feBlend mode="normal" in="SourceGraphic" in2="BackgroundImageFix" result="shape"/>
<feGaussianBlur stdDeviation="1.10001" result="effect1_foregroundBlur_102_81"/>
</filter>
</defs>
</svg>
