<svg width="64" height="64" viewBox="0 0 64 64" fill="none" xmlns="http://www.w3.org/2000/svg">
<g opacity="0.3" filter="url(#filter0_f_102_109)">
<path d="M46.4983 4.49981H17.5021C10.3213 4.49981 4.50003 10.321 4.50003 17.5019V46.4981C4.50003 53.679 10.3213 59.5002 17.5021 59.5002H46.4983C53.6792 59.5002 59.5004 53.679 59.5004 46.4981V17.5019C59.5004 10.321 53.6792 4.49981 46.4983 4.49981Z" fill="black"/>
</g>
<path d="M17.4996 4.49977C10.2964 4.49977 4.49773 10.2984 4.49773 17.5016V46.4976C4.49773 53.7007 10.2964 59.4994 17.4996 59.4994H46.4955C53.6987 59.4994 59.4974 53.7007 59.4974 46.4976V17.5016C59.4974 10.2984 53.6987 4.49977 46.4955 4.49977H17.4996Z" fill="#161D29"/>
<path d="M18.3349 10.4999C13.9929 10.4999 10.4971 13.996 10.4971 18.3377V45.6619C10.4971 50.0039 13.9932 53.4997 18.3349 53.4997H45.6591C50.0011 53.4997 53.4969 50.0036 53.4969 45.6619V18.3377C53.4969 13.9956 50.0008 10.4999 45.6591 10.4999H18.3349Z" fill="#FAFAFA"/>
<path opacity="0.6" d="M16.1125 15.9788C16.1314 16.1323 16.1499 16.2856 16.171 16.4385H47.8289C47.8486 16.2734 47.8656 16.1419 47.8832 15.9788H16.1125Z" fill="#474D59"/>
<path d="M6.62187 13.5682C5.44328 13.5682 4.49493 14.5166 4.49493 15.6951V22.6035C4.49493 22.6892 4.51043 22.7704 4.52026 22.8535C4.49947 24.8965 4.5006 27.2254 4.5006 30.2812V31.1288L4.49865 46.4978C4.49865 46.6356 4.51415 46.7693 4.51831 46.906C4.52586 47.0994 4.53002 47.2937 4.54779 47.4841C5.02549 53.8928 10.1012 58.9696 16.5087 59.4511C16.8307 59.4817 17.1567 59.4995 17.4892 59.4999C17.4937 59.4999 17.4983 59.4999 17.5028 59.4999H46.4988C46.8365 59.4999 47.168 59.4822 47.4948 59.4511C53.8861 58.969 58.9512 53.9144 59.4478 47.5272C59.4807 47.1887 59.5006 46.8462 59.5006 46.4979V30.8356C59.5006 30.8288 59.5025 30.8228 59.5025 30.816V23.9076C59.5025 22.729 58.5541 21.7807 57.3756 21.7807H34.6723C33.646 21.7807 32.8426 21.7114 32.1762 21.5346C31.5098 21.3578 30.9816 21.0725 30.5102 20.644C30.0388 20.2155 29.6233 19.6431 29.182 18.8881C28.7408 18.1331 28.2736 17.1969 27.6977 16.0405C27.4199 15.3571 27.032 14.8602 26.6078 14.5014C26.1837 14.1426 25.724 13.9213 25.2973 13.7846C24.4439 13.5112 23.729 13.5795 23.729 13.5795H14.0785C14.0389 13.5773 14.0015 13.5678 13.9613 13.5678H10.5023L6.62187 13.5682Z" fill="#474D59"/>
<path d="M32.0019 29.7629C29.3495 29.7629 26.8058 30.8165 24.9302 32.692C23.0547 34.5676 22.0011 37.1113 22.0011 39.7637C22.0011 41.077 22.2597 42.3775 22.7623 43.5908C23.2649 44.8042 24.0016 45.9067 24.9302 46.8353C25.8589 47.764 26.9614 48.5007 28.1747 49.0032C29.3881 49.5058 30.6886 49.7645 32.0019 49.7645C34.6536 49.7635 37.1964 48.7094 39.0711 46.834C40.9458 44.9586 41.9989 42.4154 41.9989 39.7637C41.9989 37.112 40.9458 34.5688 39.0711 32.6934C37.1964 30.818 34.6536 29.7639 32.0019 29.7629ZM32.0019 30.7644C34.3873 30.7655 36.6748 31.7135 38.3615 33.4003C40.0483 35.087 40.9963 37.3745 40.9973 39.7599C40.9978 40.9417 40.7656 42.112 40.3138 43.204C39.862 44.2961 39.1995 45.2884 38.3642 46.1244C37.5289 46.9604 36.5371 47.6237 35.4455 48.0764C34.3538 48.5292 33.1837 48.7624 32.0019 48.7629C30.8198 48.7634 29.6492 48.531 28.5569 48.079C27.4646 47.6269 26.4721 46.9641 25.636 46.1284C24.8 45.2927 24.1368 44.3005 23.6843 43.2084C23.2318 42.1163 22.9989 40.9458 22.9989 39.7637C22.9989 38.5816 23.2318 37.411 23.6843 36.319C24.1368 35.2269 24.8 34.2346 25.636 33.3989C26.4721 32.5632 27.4646 31.9004 28.5569 31.4484C29.6492 30.9964 30.8198 30.764 32.0019 30.7644Z" fill="white"/>
<path d="M32.9997 34.7633C32.9997 34.2101 32.5521 33.7617 32 33.7617C31.4479 33.7617 31.0003 34.2101 31.0003 34.7633V38.7583C31.0003 39.3115 31.4479 39.7599 32 39.7599C32.5521 39.7599 32.9997 39.3115 32.9997 38.7583V34.7633Z" fill="white"/>
<path d="M37.0952 44.86L37.0979 44.8573C37.2927 44.6625 37.2927 44.3466 37.0979 44.1518L32.8538 39.9077C32.659 39.7129 32.3431 39.7129 32.1482 39.9077L32.1456 39.9104C31.9507 40.1052 31.9507 40.4211 32.1456 40.6159L36.3896 44.86C36.5845 45.0548 36.9003 45.0548 37.0952 44.86Z" fill="white"/>
<path d="M32.0019 41.7646C33.1061 41.7646 34.0013 40.8694 34.0013 39.7652C34.0013 38.6609 33.1061 37.7658 32.0019 37.7658C30.8977 37.7658 30.0025 38.6609 30.0025 39.7652C30.0025 40.8694 30.8977 41.7646 32.0019 41.7646Z" fill="white"/>
<defs>
<filter id="filter0_f_102_109" x="2.30001" y="2.29979" width="59.4004" height="59.4004" filterUnits="userSpaceOnUse" color-interpolation-filters="sRGB">
<feFlood flood-opacity="0" result="BackgroundImageFix"/>
<feBlend mode="normal" in="SourceGraphic" in2="BackgroundImageFix" result="shape"/>
<feGaussianBlur stdDeviation="1.10001" result="effect1_foregroundBlur_102_109"/>
</filter>
</defs>
</svg>
