<svg width="64" height="64" viewBox="0 0 64 64" fill="none" xmlns="http://www.w3.org/2000/svg">
<g opacity="0.3" filter="url(#filter0_f_102_44)">
<path d="M46.498 4.49977H17.502C10.3212 4.49977 4.5 10.321 4.5 17.5018V46.4978C4.5 53.6786 10.3212 59.4998 17.502 59.4998H46.498C53.6788 59.4998 59.5 53.6786 59.5 46.4978V17.5018C59.5 10.321 53.6788 4.49977 46.498 4.49977Z" fill="black"/>
</g>
<path d="M17.502 4.49979C10.2988 4.49979 4.5 10.2985 4.5 17.5018V46.4978C4.5 53.701 10.2987 59.4998 17.502 59.4998H46.498C53.7012 59.4998 59.5 53.7011 59.5 46.4978V17.5018C59.5 10.2986 53.7013 4.49979 46.498 4.49979H17.502Z" fill="#161D29"/>
<path d="M18.338 10.4999C13.996 10.4999 10.5002 13.996 10.5002 18.3377V45.6617C10.5002 50.0037 13.9963 53.4995 18.338 53.4995H45.662C50.004 53.4995 53.4998 50.0034 53.4998 45.6617V18.3377C53.4998 13.9957 50.0037 10.4999 45.662 10.4999H18.338Z" fill="#FAFAFA"/>
<path opacity="0.6" d="M16.115 15.9789C16.1339 16.1324 16.1524 16.2857 16.1735 16.4386H47.8315C47.8512 16.2734 47.8682 16.1419 47.8858 15.9789H16.115Z" fill="#474D59"/>
<path d="M6.62299 13.5679C5.44439 13.5679 4.49609 14.5163 4.49609 15.6948V22.6032C4.49609 22.6889 4.5116 22.7702 4.52142 22.8532C4.50063 24.8962 4.50177 27.2251 4.50177 30.2809V31.1286H4.49976V46.4976C4.49976 46.6353 4.51527 46.7691 4.51942 46.9058C4.52702 47.0992 4.53114 47.2935 4.5489 47.4839C5.0266 53.8926 10.1023 58.9689 16.5099 59.4509C16.8318 59.4815 17.1579 59.4993 17.4904 59.4997C17.4949 59.4997 17.4995 59.4997 17.504 59.4997H46.5C46.8377 59.4997 47.1692 59.482 47.4961 59.4509C53.8874 58.9688 58.9521 53.9142 59.4491 47.5269C59.4819 47.1884 59.5018 46.8458 59.5018 46.4976V30.8356C59.5018 30.8288 59.5038 30.8227 59.5038 30.8159V23.9075C59.5038 22.7289 58.5554 21.7806 57.3769 21.7806H34.6739C33.6477 21.7806 32.8442 21.7114 32.1778 21.5345C31.5114 21.3577 30.9832 21.0724 30.5118 20.6439C30.0404 20.2154 29.6249 19.6431 29.1837 18.888C28.7424 18.133 28.2752 17.1968 27.6993 16.0403C27.4215 15.3569 27.0336 14.86 26.6095 14.5012C26.1853 14.1424 25.7256 13.9211 25.299 13.7844C24.4456 13.511 23.7307 13.5793 23.7307 13.5793H14.0802C14.0406 13.5771 14.0032 13.5676 13.963 13.5676H10.504L6.62299 13.5679Z" fill="#474D59"/>
<path d="M36.116 30.293L31.9988 33.7305L37.9304 37.3926L41.9988 34.1348L36.116 30.293ZM26.067 37.3926L22.0006 40.6504L27.8834 44.4902L32.0006 41.0547L26.067 37.3926ZM37.932 37.3946L32.0004 41.0567L36.1156 44.4922L42.0004 40.6524L37.932 37.3946Z" fill="#F5F5F5"/>
<path d="M27.883 30.295L22.0002 34.1348L26.0666 37.3926L32.0002 33.7305L27.883 30.295Z" fill="#F5F5F5"/>
<path d="M32.012 41.795L27.8831 45.2208L26.1155 44.0665V45.3595L32.012 48.8966L37.9065 45.3595V44.0665L36.1409 45.2208L32.012 41.795Z" fill="#F5F5F5"/>
<defs>
<filter id="filter0_f_102_44" x="2.3" y="2.29977" width="59.4" height="59.4" filterUnits="userSpaceOnUse" color-interpolation-filters="sRGB">
<feFlood flood-opacity="0" result="BackgroundImageFix"/>
<feBlend mode="normal" in="SourceGraphic" in2="BackgroundImageFix" result="shape"/>
<feGaussianBlur stdDeviation="1.1" result="effect1_foregroundBlur_102_44"/>
</filter>
</defs>
</svg>
