<svg width="64" height="64" viewBox="0 0 64 64" fill="none" xmlns="http://www.w3.org/2000/svg">
<g opacity="0.3" filter="url(#filter0_f_102_160)">
<path d="M46.4983 4.50003H17.5021C10.3213 4.50003 4.50004 10.3213 4.50004 17.5021V46.4983C4.50004 53.6792 10.3213 59.5004 17.5021 59.5004H46.4983C53.6792 59.5004 59.5004 53.6792 59.5004 46.4983V17.5021C59.5004 10.3213 53.6792 4.50003 46.4983 4.50003Z" fill="black"/>
</g>
<path d="M17.5033 4.49999C10.3002 4.49999 4.5015 10.2987 4.5015 17.5018V46.4978C4.5015 53.701 10.3002 59.4996 17.5033 59.4996H46.4993C53.7025 59.4996 59.5011 53.701 59.5011 46.4978V17.5018C59.5011 10.2987 53.7025 4.49999 46.4993 4.49999H17.5033Z" fill="#161D29"/>
<path d="M18.3386 10.5001C13.9966 10.5001 10.5009 13.9962 10.5009 18.3379V45.6621C10.5009 50.0041 13.9969 53.4999 18.3386 53.4999H45.6629C50.0049 53.4999 53.5006 50.0038 53.5006 45.6621V18.3379C53.5006 13.9959 50.0046 10.5001 45.6629 10.5001H18.3386Z" fill="#FAFAFA"/>
<path opacity="0.6" d="M16.1162 15.979C16.1351 16.1326 16.1536 16.2859 16.1747 16.4387H47.8327C47.8523 16.2736 47.8693 16.1421 47.887 15.979H16.1162Z" fill="#474D59"/>
<path d="M6.62187 13.5684C5.44328 13.5684 4.49493 14.5168 4.49493 15.6953V22.6037C4.49493 22.6894 4.51043 22.7707 4.52026 22.8537C4.49947 24.8967 4.5006 27.2256 4.5006 30.2814V31.129L4.49865 46.498C4.49865 46.6358 4.51415 46.7696 4.51831 46.9062C4.52586 47.0997 4.53003 47.2939 4.54779 47.4844C5.02549 53.893 10.1012 58.9698 16.5087 59.4513C16.8307 59.4819 17.1567 59.4997 17.4892 59.5002C17.4937 59.5002 17.4983 59.5002 17.5028 59.5002H46.4988C46.8365 59.5002 47.168 59.4824 47.4948 59.4513C53.8861 58.9692 58.9512 53.9146 59.4478 47.5274C59.4807 47.1889 59.5006 46.8464 59.5006 46.4981V30.8358C59.5006 30.829 59.5025 30.823 59.5025 30.8162V23.9078C59.5025 22.7292 58.5541 21.7809 57.3756 21.7809H34.6723C33.646 21.7809 32.8426 21.7116 32.1762 21.5348C31.5098 21.358 30.9816 21.0727 30.5102 20.6442C30.0388 20.2157 29.6233 19.6433 29.182 18.8883C28.7408 18.1333 28.2736 17.1971 27.6977 16.0407C27.4199 15.3573 27.032 14.8604 26.6078 14.5016C26.1837 14.1428 25.724 13.9215 25.2973 13.7848C24.4439 13.5114 23.729 13.5797 23.729 13.5797H14.0785C14.0389 13.5776 14.0015 13.568 13.9613 13.568H10.5023L6.62187 13.5684Z" fill="#474D59"/>
<path d="M28.9918 41.1875V42.0808C28.9918 42.0808 29.233 43.9997 27.8705 44.7094C26.5079 45.4191 21.9974 47.5478 21.7552 47.942C21.513 48.3362 21.1499 49.4734 22.1794 49.7626H41.8204C42.8498 49.4735 42.4868 48.3362 42.2445 47.942C42.0023 47.5477 37.4917 45.4191 36.1293 44.7094C34.7667 43.9998 35.0079 42.0808 35.0079 42.0808V41.1875H31.9998H28.9918Z" fill="white"/>
<path d="M36.4658 36.8056C35.8725 41.035 34.4737 43.2924 32.0164 43.2924C29.559 43.2924 28.16 41.035 27.5669 36.8056C27.0256 32.9468 27.5669 29.7566 32.0164 29.7566C36.4658 29.7566 37.0071 32.9468 36.4658 36.8056Z" fill="#F0F0F0"/>
<path d="M36.5555 35.8376C36.5555 35.8376 37.946 35.7819 37.5752 37.1724C37.2044 38.5629 36.4999 40.0462 35.7212 40.213C34.9425 40.3799 36.333 35.8932 36.5555 35.8376Z" fill="#FAFAFA"/>
<path d="M27.4436 35.7066C27.4436 35.7066 26.0531 35.651 26.4239 37.0415C26.7947 38.4319 27.4992 39.9152 28.2779 40.0821C29.0566 40.2489 27.6661 35.7622 27.4436 35.7066Z" fill="#FAFAFA"/>
<path d="M36.4658 36.8056C35.8725 41.035 34.4737 43.2924 32.0164 43.2924C29.559 43.2924 28.16 41.035 27.5669 36.8056C27.0256 32.9468 27.5669 29.7566 32.0164 29.7566C36.4658 29.7566 37.0071 32.9468 36.4658 36.8056Z" fill="white"/>
<defs>
<filter id="filter0_f_102_160" x="2.30002" y="2.30001" width="59.4004" height="59.4004" filterUnits="userSpaceOnUse" color-interpolation-filters="sRGB">
<feFlood flood-opacity="0" result="BackgroundImageFix"/>
<feBlend mode="normal" in="SourceGraphic" in2="BackgroundImageFix" result="shape"/>
<feGaussianBlur stdDeviation="1.10001" result="effect1_foregroundBlur_102_160"/>
</filter>
</defs>
</svg>
