<svg width="64" height="64" viewBox="0 0 64 64" fill="none" xmlns="http://www.w3.org/2000/svg">
<g opacity="0.3" filter="url(#filter0_f_102_139)">
<path d="M44.5001 4.4998H19.4999C11.2156 4.4998 4.49981 11.2156 4.49981 19.4999V44.5001C4.49981 52.7844 11.2156 59.5002 19.4999 59.5002H44.5001C52.7844 59.5002 59.5002 52.7844 59.5002 44.5001V19.4999C59.5002 11.2156 52.7844 4.4998 44.5001 4.4998Z" fill="#474D59"/>
</g>
<path d="M44.5018 4.49961H19.5012C11.2169 4.49961 4.50113 11.2154 4.50113 19.4997V44.5003C4.50113 52.7846 11.2169 59.5004 19.5012 59.5004H44.5018C52.7861 59.5004 59.5019 52.7846 59.5019 44.5003V19.4997C59.5019 11.2154 52.7861 4.49961 44.5018 4.49961Z" fill="#474D59"/>
<path opacity="0.35" d="M46.3708 43.9228H17.633C15.9038 43.9228 14.502 45.3246 14.502 47.0538V51.4835C14.502 53.2127 15.9038 54.6145 17.633 54.6145H46.3708C48.1 54.6145 49.5018 53.2127 49.5018 51.4835V47.0538C49.5018 45.3246 48.1 43.9228 46.3708 43.9228Z" fill="#C0C9DB"/>
<path d="M21.9656 46.4286H18.5562C17.9286 46.4286 17.4198 46.9374 17.4198 47.565V50.9745C17.4198 51.6021 17.9286 52.1109 18.5562 52.1109H21.9656C22.5933 52.1109 23.1021 51.6021 23.1021 50.9745V47.565C23.1021 46.9374 22.5933 46.4286 21.9656 46.4286Z" fill="white"/>
<path d="M29.7932 46.4286H26.3838C25.7562 46.4286 25.2474 46.9374 25.2474 47.565V50.9745C25.2474 51.6021 25.7562 52.1109 26.3838 52.1109H29.7932C30.4208 52.1109 30.9296 51.6021 30.9296 50.9745V47.565C30.9296 46.9374 30.4208 46.4286 29.7932 46.4286Z" fill="white"/>
<path d="M37.617 46.4286H34.2076C33.5799 46.4286 33.0711 46.9374 33.0711 47.565V50.9745C33.0711 51.6021 33.5799 52.1109 34.2076 52.1109H37.617C38.2446 52.1109 38.7534 51.6021 38.7534 50.9745V47.565C38.7534 46.9374 38.2446 46.4286 37.617 46.4286Z" fill="white"/>
<path d="M45.4449 46.4286H42.0355C41.4079 46.4286 40.8991 46.9374 40.8991 47.565V50.9745C40.8991 51.6021 41.4079 52.1109 42.0355 52.1109H45.4449C46.0725 52.1109 46.5813 51.6021 46.5813 50.9745V47.565C46.5813 46.9374 46.0725 46.4286 45.4449 46.4286Z" fill="white"/>
<defs>
<filter id="filter0_f_102_139" x="3.2623" y="3.26229" width="57.4754" height="57.4754" filterUnits="userSpaceOnUse" color-interpolation-filters="sRGB">
<feFlood flood-opacity="0" result="BackgroundImageFix"/>
<feBlend mode="normal" in="SourceGraphic" in2="BackgroundImageFix" result="shape"/>
<feGaussianBlur stdDeviation="0.618754" result="effect1_foregroundBlur_102_139"/>
</filter>
</defs>
</svg>
